<mxfile host="app.diagrams.net" modified="2022-05-21T11:13:16.179Z" agent="5.0 (Macintosh; Intel Mac OS X 10_15_7) AppleWebKit/537.36 (KHTML, like Gecko) Chrome/101.0.4951.64 Safari/537.36" etag="Uksv_8AUuAvLzRo7HBuy" version="18.1.1" type="github">
  <diagram id="ml0Fdqx52xL5Ely8d28l" name="Page-1">
    <mxGraphModel dx="3714" dy="1381" grid="0" gridSize="10" guides="1" tooltips="1" connect="1" arrows="1" fold="1" page="0" pageScale="1" pageWidth="690" pageHeight="980" math="0" shadow="0">
      <root>
        <mxCell id="0" />
        <mxCell id="1" parent="0" />
        <mxCell id="0gxv1SQT3VpTeHQqMCU--398" value="" style="rounded=0;whiteSpace=wrap;html=1;shadow=0;sketch=0;fontFamily=Helvetica;fontSize=14;startSize=30;dashed=1;strokeColor=#FF9933;" parent="1" vertex="1">
          <mxGeometry x="-298" y="48" width="1060" height="645" as="geometry" />
        </mxCell>
        <mxCell id="0gxv1SQT3VpTeHQqMCU--225" value="" style="rounded=0;whiteSpace=wrap;html=1;shadow=0;sketch=0;fontFamily=Helvetica;fontSize=14;startSize=30;dashed=1;strokeColor=#9999FF;" parent="1" vertex="1">
          <mxGeometry x="-862" y="715" width="1622" height="675" as="geometry" />
        </mxCell>
        <mxCell id="0gxv1SQT3VpTeHQqMCU--68" value="" style="rounded=0;whiteSpace=wrap;html=1;shadow=0;sketch=0;fontFamily=Helvetica;fontSize=14;fontColor=default;startSize=30;strokeColor=#CCCCCC;fillColor=default;gradientColor=none;dashed=1;" parent="1" vertex="1">
          <mxGeometry x="-861" y="47" width="520" height="647" as="geometry" />
        </mxCell>
        <mxCell id="0gxv1SQT3VpTeHQqMCU--6" value="user [회원]" style="shape=table;startSize=30;container=1;collapsible=1;childLayout=tableLayout;fixedRows=1;rowLines=1;fontStyle=1;align=center;resizeLast=1;sketch=0;fontSize=14;gradientColor=none;swimlaneFillColor=none;rounded=0;shadow=0;resizeLastRow=1;autosize=0;" parent="1" vertex="1">
          <mxGeometry x="-724" y="182" width="343" height="381" as="geometry" />
        </mxCell>
        <mxCell id="0gxv1SQT3VpTeHQqMCU--7" value="" style="shape=tableRow;horizontal=0;startSize=0;swimlaneHead=0;swimlaneBody=0;fillColor=none;collapsible=0;dropTarget=0;points=[[0,0.5],[1,0.5]];portConstraint=eastwest;top=0;left=0;right=0;bottom=1;sketch=0;" parent="0gxv1SQT3VpTeHQqMCU--6" vertex="1">
          <mxGeometry y="30" width="343" height="30" as="geometry" />
        </mxCell>
        <mxCell id="0gxv1SQT3VpTeHQqMCU--8" value="PK" style="shape=partialRectangle;connectable=0;fillColor=#fff2cc;top=0;left=0;bottom=0;right=0;fontStyle=1;overflow=hidden;sketch=0;strokeColor=#d6b656;" parent="0gxv1SQT3VpTeHQqMCU--7" vertex="1">
          <mxGeometry width="30" height="30" as="geometry">
            <mxRectangle width="30" height="30" as="alternateBounds" />
          </mxGeometry>
        </mxCell>
        <mxCell id="0gxv1SQT3VpTeHQqMCU--9" value="id bigint auto increment" style="shape=partialRectangle;connectable=0;fillColor=#fff2cc;top=0;left=0;bottom=0;right=0;align=left;spacingLeft=6;fontStyle=1;overflow=hidden;sketch=0;strokeColor=#d6b656;" parent="0gxv1SQT3VpTeHQqMCU--7" vertex="1">
          <mxGeometry x="30" width="240" height="30" as="geometry">
            <mxRectangle width="240" height="30" as="alternateBounds" />
          </mxGeometry>
        </mxCell>
        <mxCell id="0gxv1SQT3VpTeHQqMCU--153" style="shape=partialRectangle;connectable=0;fillColor=#fff2cc;top=0;left=0;bottom=0;right=0;align=left;spacingLeft=6;fontStyle=1;overflow=hidden;sketch=0;strokeColor=#d6b656;" parent="0gxv1SQT3VpTeHQqMCU--7" vertex="1">
          <mxGeometry x="270" width="73" height="30" as="geometry">
            <mxRectangle width="73" height="30" as="alternateBounds" />
          </mxGeometry>
        </mxCell>
        <mxCell id="0gxv1SQT3VpTeHQqMCU--10" value="" style="shape=tableRow;horizontal=0;startSize=0;swimlaneHead=0;swimlaneBody=0;fillColor=none;collapsible=0;dropTarget=0;points=[[0,0.5],[1,0.5]];portConstraint=eastwest;top=0;left=0;right=0;bottom=0;sketch=0;" parent="0gxv1SQT3VpTeHQqMCU--6" vertex="1">
          <mxGeometry y="60" width="343" height="30" as="geometry" />
        </mxCell>
        <mxCell id="0gxv1SQT3VpTeHQqMCU--11" value="" style="shape=partialRectangle;connectable=0;fillColor=none;top=0;left=0;bottom=0;right=0;editable=1;overflow=hidden;sketch=0;" parent="0gxv1SQT3VpTeHQqMCU--10" vertex="1">
          <mxGeometry width="30" height="30" as="geometry">
            <mxRectangle width="30" height="30" as="alternateBounds" />
          </mxGeometry>
        </mxCell>
        <mxCell id="0gxv1SQT3VpTeHQqMCU--12" value="login_id varchar(16) unique not null" style="shape=partialRectangle;connectable=0;fillColor=none;top=0;left=0;bottom=0;right=0;align=left;spacingLeft=6;overflow=hidden;sketch=0;" parent="0gxv1SQT3VpTeHQqMCU--10" vertex="1">
          <mxGeometry x="30" width="240" height="30" as="geometry">
            <mxRectangle width="240" height="30" as="alternateBounds" />
          </mxGeometry>
        </mxCell>
        <mxCell id="0gxv1SQT3VpTeHQqMCU--154" style="shape=partialRectangle;connectable=0;fillColor=none;top=0;left=0;bottom=0;right=0;align=left;spacingLeft=6;overflow=hidden;sketch=0;" parent="0gxv1SQT3VpTeHQqMCU--10" vertex="1">
          <mxGeometry x="270" width="73" height="30" as="geometry">
            <mxRectangle width="73" height="30" as="alternateBounds" />
          </mxGeometry>
        </mxCell>
        <mxCell id="0gxv1SQT3VpTeHQqMCU--13" value="" style="shape=tableRow;horizontal=0;startSize=0;swimlaneHead=0;swimlaneBody=0;fillColor=none;collapsible=0;dropTarget=0;points=[[0,0.5],[1,0.5]];portConstraint=eastwest;top=0;left=0;right=0;bottom=0;sketch=0;" parent="0gxv1SQT3VpTeHQqMCU--6" vertex="1">
          <mxGeometry y="90" width="343" height="30" as="geometry" />
        </mxCell>
        <mxCell id="0gxv1SQT3VpTeHQqMCU--14" value="" style="shape=partialRectangle;connectable=0;fillColor=none;top=0;left=0;bottom=0;right=0;editable=1;overflow=hidden;sketch=0;" parent="0gxv1SQT3VpTeHQqMCU--13" vertex="1">
          <mxGeometry width="30" height="30" as="geometry">
            <mxRectangle width="30" height="30" as="alternateBounds" />
          </mxGeometry>
        </mxCell>
        <mxCell id="0gxv1SQT3VpTeHQqMCU--15" value="unique_value varchar(36) unique not null" style="shape=partialRectangle;connectable=0;fillColor=none;top=0;left=0;bottom=0;right=0;align=left;spacingLeft=6;overflow=hidden;sketch=0;" parent="0gxv1SQT3VpTeHQqMCU--13" vertex="1">
          <mxGeometry x="30" width="240" height="30" as="geometry">
            <mxRectangle width="240" height="30" as="alternateBounds" />
          </mxGeometry>
        </mxCell>
        <mxCell id="0gxv1SQT3VpTeHQqMCU--155" style="shape=partialRectangle;connectable=0;fillColor=none;top=0;left=0;bottom=0;right=0;align=left;spacingLeft=6;overflow=hidden;sketch=0;" parent="0gxv1SQT3VpTeHQqMCU--13" vertex="1">
          <mxGeometry x="270" width="73" height="30" as="geometry">
            <mxRectangle width="73" height="30" as="alternateBounds" />
          </mxGeometry>
        </mxCell>
        <mxCell id="0gxv1SQT3VpTeHQqMCU--16" value="" style="shape=tableRow;horizontal=0;startSize=0;swimlaneHead=0;swimlaneBody=0;fillColor=none;collapsible=0;dropTarget=0;points=[[0,0.5],[1,0.5]];portConstraint=eastwest;top=0;left=0;right=0;bottom=0;sketch=0;" parent="0gxv1SQT3VpTeHQqMCU--6" vertex="1">
          <mxGeometry y="120" width="343" height="30" as="geometry" />
        </mxCell>
        <mxCell id="0gxv1SQT3VpTeHQqMCU--17" value="" style="shape=partialRectangle;connectable=0;fillColor=none;top=0;left=0;bottom=0;right=0;editable=1;overflow=hidden;sketch=0;" parent="0gxv1SQT3VpTeHQqMCU--16" vertex="1">
          <mxGeometry width="30" height="30" as="geometry">
            <mxRectangle width="30" height="30" as="alternateBounds" />
          </mxGeometry>
        </mxCell>
        <mxCell id="0gxv1SQT3VpTeHQqMCU--18" value="pw varchar(20) not null" style="shape=partialRectangle;connectable=0;fillColor=none;top=0;left=0;bottom=0;right=0;align=left;spacingLeft=6;overflow=hidden;sketch=0;" parent="0gxv1SQT3VpTeHQqMCU--16" vertex="1">
          <mxGeometry x="30" width="240" height="30" as="geometry">
            <mxRectangle width="240" height="30" as="alternateBounds" />
          </mxGeometry>
        </mxCell>
        <mxCell id="0gxv1SQT3VpTeHQqMCU--156" style="shape=partialRectangle;connectable=0;fillColor=none;top=0;left=0;bottom=0;right=0;align=left;spacingLeft=6;overflow=hidden;sketch=0;" parent="0gxv1SQT3VpTeHQqMCU--16" vertex="1">
          <mxGeometry x="270" width="73" height="30" as="geometry">
            <mxRectangle width="73" height="30" as="alternateBounds" />
          </mxGeometry>
        </mxCell>
        <mxCell id="0gxv1SQT3VpTeHQqMCU--19" style="shape=tableRow;horizontal=0;startSize=0;swimlaneHead=0;swimlaneBody=0;fillColor=none;collapsible=0;dropTarget=0;points=[[0,0.5],[1,0.5]];portConstraint=eastwest;top=0;left=0;right=0;bottom=0;sketch=0;" parent="0gxv1SQT3VpTeHQqMCU--6" vertex="1">
          <mxGeometry y="150" width="343" height="30" as="geometry" />
        </mxCell>
        <mxCell id="0gxv1SQT3VpTeHQqMCU--20" style="shape=partialRectangle;connectable=0;fillColor=none;top=0;left=0;bottom=0;right=0;editable=1;overflow=hidden;sketch=0;" parent="0gxv1SQT3VpTeHQqMCU--19" vertex="1">
          <mxGeometry width="30" height="30" as="geometry">
            <mxRectangle width="30" height="30" as="alternateBounds" />
          </mxGeometry>
        </mxCell>
        <mxCell id="0gxv1SQT3VpTeHQqMCU--21" value="last_login_at datetime" style="shape=partialRectangle;connectable=0;fillColor=none;top=0;left=0;bottom=0;right=0;align=left;spacingLeft=6;overflow=hidden;sketch=0;" parent="0gxv1SQT3VpTeHQqMCU--19" vertex="1">
          <mxGeometry x="30" width="240" height="30" as="geometry">
            <mxRectangle width="240" height="30" as="alternateBounds" />
          </mxGeometry>
        </mxCell>
        <mxCell id="0gxv1SQT3VpTeHQqMCU--157" style="shape=partialRectangle;connectable=0;fillColor=none;top=0;left=0;bottom=0;right=0;align=left;spacingLeft=6;overflow=hidden;sketch=0;" parent="0gxv1SQT3VpTeHQqMCU--19" vertex="1">
          <mxGeometry x="270" width="73" height="30" as="geometry">
            <mxRectangle width="73" height="30" as="alternateBounds" />
          </mxGeometry>
        </mxCell>
        <mxCell id="0gxv1SQT3VpTeHQqMCU--22" style="shape=tableRow;horizontal=0;startSize=0;swimlaneHead=0;swimlaneBody=0;fillColor=none;collapsible=0;dropTarget=0;points=[[0,0.5],[1,0.5]];portConstraint=eastwest;top=0;left=0;right=0;bottom=0;sketch=0;" parent="0gxv1SQT3VpTeHQqMCU--6" vertex="1">
          <mxGeometry y="180" width="343" height="30" as="geometry" />
        </mxCell>
        <mxCell id="0gxv1SQT3VpTeHQqMCU--23" style="shape=partialRectangle;connectable=0;fillColor=none;top=0;left=0;bottom=0;right=0;editable=1;overflow=hidden;sketch=0;" parent="0gxv1SQT3VpTeHQqMCU--22" vertex="1">
          <mxGeometry width="30" height="30" as="geometry">
            <mxRectangle width="30" height="30" as="alternateBounds" />
          </mxGeometry>
        </mxCell>
        <mxCell id="0gxv1SQT3VpTeHQqMCU--24" value="token varchar(36) unique" style="shape=partialRectangle;connectable=0;fillColor=none;top=0;left=0;bottom=0;right=0;align=left;spacingLeft=6;overflow=hidden;sketch=0;" parent="0gxv1SQT3VpTeHQqMCU--22" vertex="1">
          <mxGeometry x="30" width="240" height="30" as="geometry">
            <mxRectangle width="240" height="30" as="alternateBounds" />
          </mxGeometry>
        </mxCell>
        <mxCell id="0gxv1SQT3VpTeHQqMCU--158" style="shape=partialRectangle;connectable=0;fillColor=none;top=0;left=0;bottom=0;right=0;align=left;spacingLeft=6;overflow=hidden;sketch=0;" parent="0gxv1SQT3VpTeHQqMCU--22" vertex="1">
          <mxGeometry x="270" width="73" height="30" as="geometry">
            <mxRectangle width="73" height="30" as="alternateBounds" />
          </mxGeometry>
        </mxCell>
        <mxCell id="0gxv1SQT3VpTeHQqMCU--25" style="shape=tableRow;horizontal=0;startSize=0;swimlaneHead=0;swimlaneBody=0;fillColor=none;collapsible=0;dropTarget=0;points=[[0,0.5],[1,0.5]];portConstraint=eastwest;top=0;left=0;right=0;bottom=0;sketch=0;" parent="0gxv1SQT3VpTeHQqMCU--6" vertex="1">
          <mxGeometry y="210" width="343" height="30" as="geometry" />
        </mxCell>
        <mxCell id="0gxv1SQT3VpTeHQqMCU--26" style="shape=partialRectangle;connectable=0;fillColor=none;top=0;left=0;bottom=0;right=0;editable=1;overflow=hidden;sketch=0;" parent="0gxv1SQT3VpTeHQqMCU--25" vertex="1">
          <mxGeometry width="30" height="30" as="geometry">
            <mxRectangle width="30" height="30" as="alternateBounds" />
          </mxGeometry>
        </mxCell>
        <mxCell id="0gxv1SQT3VpTeHQqMCU--27" value="address varchar(255) not null" style="shape=partialRectangle;connectable=0;fillColor=none;top=0;left=0;bottom=0;right=0;align=left;spacingLeft=6;overflow=hidden;sketch=0;" parent="0gxv1SQT3VpTeHQqMCU--25" vertex="1">
          <mxGeometry x="30" width="240" height="30" as="geometry">
            <mxRectangle width="240" height="30" as="alternateBounds" />
          </mxGeometry>
        </mxCell>
        <mxCell id="0gxv1SQT3VpTeHQqMCU--159" style="shape=partialRectangle;connectable=0;fillColor=none;top=0;left=0;bottom=0;right=0;align=left;spacingLeft=6;overflow=hidden;sketch=0;" parent="0gxv1SQT3VpTeHQqMCU--25" vertex="1">
          <mxGeometry x="270" width="73" height="30" as="geometry">
            <mxRectangle width="73" height="30" as="alternateBounds" />
          </mxGeometry>
        </mxCell>
        <mxCell id="0gxv1SQT3VpTeHQqMCU--28" style="shape=tableRow;horizontal=0;startSize=0;swimlaneHead=0;swimlaneBody=0;fillColor=none;collapsible=0;dropTarget=0;points=[[0,0.5],[1,0.5]];portConstraint=eastwest;top=0;left=0;right=0;bottom=0;sketch=0;" parent="0gxv1SQT3VpTeHQqMCU--6" vertex="1">
          <mxGeometry y="240" width="343" height="32" as="geometry" />
        </mxCell>
        <mxCell id="0gxv1SQT3VpTeHQqMCU--29" style="shape=partialRectangle;connectable=0;fillColor=none;top=0;left=0;bottom=0;right=0;editable=1;overflow=hidden;sketch=0;" parent="0gxv1SQT3VpTeHQqMCU--28" vertex="1">
          <mxGeometry width="30" height="32" as="geometry">
            <mxRectangle width="30" height="32" as="alternateBounds" />
          </mxGeometry>
        </mxCell>
        <mxCell id="0gxv1SQT3VpTeHQqMCU--30" value="phone_number varchar(36) not null" style="shape=partialRectangle;connectable=0;fillColor=none;top=0;left=0;bottom=0;right=0;align=left;spacingLeft=6;overflow=hidden;sketch=0;" parent="0gxv1SQT3VpTeHQqMCU--28" vertex="1">
          <mxGeometry x="30" width="240" height="32" as="geometry">
            <mxRectangle width="240" height="32" as="alternateBounds" />
          </mxGeometry>
        </mxCell>
        <mxCell id="0gxv1SQT3VpTeHQqMCU--160" style="shape=partialRectangle;connectable=0;fillColor=none;top=0;left=0;bottom=0;right=0;align=left;spacingLeft=6;overflow=hidden;sketch=0;" parent="0gxv1SQT3VpTeHQqMCU--28" vertex="1">
          <mxGeometry x="270" width="73" height="32" as="geometry">
            <mxRectangle width="73" height="32" as="alternateBounds" />
          </mxGeometry>
        </mxCell>
        <mxCell id="0gxv1SQT3VpTeHQqMCU--150" style="shape=tableRow;horizontal=0;startSize=0;swimlaneHead=0;swimlaneBody=0;fillColor=none;collapsible=0;dropTarget=0;points=[[0,0.5],[1,0.5]];portConstraint=eastwest;top=0;left=0;right=0;bottom=0;sketch=0;" parent="0gxv1SQT3VpTeHQqMCU--6" vertex="1">
          <mxGeometry y="272" width="343" height="45" as="geometry" />
        </mxCell>
        <mxCell id="0gxv1SQT3VpTeHQqMCU--151" style="shape=partialRectangle;connectable=0;fillColor=none;top=0;left=0;bottom=0;right=0;editable=1;overflow=hidden;sketch=0;" parent="0gxv1SQT3VpTeHQqMCU--150" vertex="1">
          <mxGeometry width="30" height="45" as="geometry">
            <mxRectangle width="30" height="45" as="alternateBounds" />
          </mxGeometry>
        </mxCell>
        <mxCell id="0gxv1SQT3VpTeHQqMCU--152" value="type varchar(16) not null" style="shape=partialRectangle;connectable=0;fillColor=none;top=0;left=0;bottom=0;right=0;align=left;spacingLeft=6;overflow=hidden;sketch=0;" parent="0gxv1SQT3VpTeHQqMCU--150" vertex="1">
          <mxGeometry x="30" width="240" height="45" as="geometry">
            <mxRectangle width="240" height="45" as="alternateBounds" />
          </mxGeometry>
        </mxCell>
        <mxCell id="0gxv1SQT3VpTeHQqMCU--161" value="회원 타입&#xa;- BUYER&#xa;- SELLER" style="shape=partialRectangle;connectable=0;fillColor=none;top=0;left=0;bottom=0;right=0;align=left;spacingLeft=6;overflow=hidden;sketch=0;" parent="0gxv1SQT3VpTeHQqMCU--150" vertex="1">
          <mxGeometry x="270" width="73" height="45" as="geometry">
            <mxRectangle width="73" height="45" as="alternateBounds" />
          </mxGeometry>
        </mxCell>
        <mxCell id="0gxv1SQT3VpTeHQqMCU--34" style="shape=tableRow;horizontal=0;startSize=0;swimlaneHead=0;swimlaneBody=0;fillColor=none;collapsible=0;dropTarget=0;points=[[0,0.5],[1,0.5]];portConstraint=eastwest;top=0;left=0;right=0;bottom=0;sketch=0;" parent="0gxv1SQT3VpTeHQqMCU--6" vertex="1">
          <mxGeometry y="317" width="343" height="32" as="geometry" />
        </mxCell>
        <mxCell id="0gxv1SQT3VpTeHQqMCU--35" style="shape=partialRectangle;connectable=0;fillColor=none;top=0;left=0;bottom=0;right=0;editable=1;overflow=hidden;sketch=0;" parent="0gxv1SQT3VpTeHQqMCU--34" vertex="1">
          <mxGeometry width="30" height="32" as="geometry">
            <mxRectangle width="30" height="32" as="alternateBounds" />
          </mxGeometry>
        </mxCell>
        <mxCell id="0gxv1SQT3VpTeHQqMCU--36" value="fail_count int default 0" style="shape=partialRectangle;connectable=0;fillColor=none;top=0;left=0;bottom=0;right=0;align=left;spacingLeft=6;overflow=hidden;sketch=0;" parent="0gxv1SQT3VpTeHQqMCU--34" vertex="1">
          <mxGeometry x="30" width="240" height="32" as="geometry">
            <mxRectangle width="240" height="32" as="alternateBounds" />
          </mxGeometry>
        </mxCell>
        <mxCell id="0gxv1SQT3VpTeHQqMCU--162" style="shape=partialRectangle;connectable=0;fillColor=none;top=0;left=0;bottom=0;right=0;align=left;spacingLeft=6;overflow=hidden;sketch=0;" parent="0gxv1SQT3VpTeHQqMCU--34" vertex="1">
          <mxGeometry x="270" width="73" height="32" as="geometry">
            <mxRectangle width="73" height="32" as="alternateBounds" />
          </mxGeometry>
        </mxCell>
        <mxCell id="0gxv1SQT3VpTeHQqMCU--31" style="shape=tableRow;horizontal=0;startSize=0;swimlaneHead=0;swimlaneBody=0;fillColor=none;collapsible=0;dropTarget=0;points=[[0,0.5],[1,0.5]];portConstraint=eastwest;top=0;left=0;right=0;bottom=0;sketch=0;" parent="0gxv1SQT3VpTeHQqMCU--6" vertex="1">
          <mxGeometry y="349" width="343" height="32" as="geometry" />
        </mxCell>
        <mxCell id="0gxv1SQT3VpTeHQqMCU--32" style="shape=partialRectangle;connectable=0;fillColor=none;top=0;left=0;bottom=0;right=0;editable=1;overflow=hidden;sketch=0;" parent="0gxv1SQT3VpTeHQqMCU--31" vertex="1">
          <mxGeometry width="30" height="32" as="geometry">
            <mxRectangle width="30" height="32" as="alternateBounds" />
          </mxGeometry>
        </mxCell>
        <mxCell id="0gxv1SQT3VpTeHQqMCU--33" value="status boolean not null" style="shape=partialRectangle;connectable=0;fillColor=none;top=0;left=0;bottom=0;right=0;align=left;spacingLeft=6;overflow=hidden;sketch=0;" parent="0gxv1SQT3VpTeHQqMCU--31" vertex="1">
          <mxGeometry x="30" width="240" height="32" as="geometry">
            <mxRectangle width="240" height="32" as="alternateBounds" />
          </mxGeometry>
        </mxCell>
        <mxCell id="0gxv1SQT3VpTeHQqMCU--163" style="shape=partialRectangle;connectable=0;fillColor=none;top=0;left=0;bottom=0;right=0;align=left;spacingLeft=6;overflow=hidden;sketch=0;" parent="0gxv1SQT3VpTeHQqMCU--31" vertex="1">
          <mxGeometry x="270" width="73" height="32" as="geometry">
            <mxRectangle width="73" height="32" as="alternateBounds" />
          </mxGeometry>
        </mxCell>
        <mxCell id="0gxv1SQT3VpTeHQqMCU--37" value="cart [장바구니]" style="shape=table;startSize=30;container=1;collapsible=1;childLayout=tableLayout;fixedRows=1;rowLines=1;fontStyle=1;align=center;resizeLast=1;sketch=0;fontSize=14;gradientColor=none;swimlaneFillColor=none;rounded=0;shadow=0;resizeLastRow=1;autosize=0;" parent="1" vertex="1">
          <mxGeometry x="-222" y="188" width="421" height="179.9335714285716" as="geometry" />
        </mxCell>
        <mxCell id="0gxv1SQT3VpTeHQqMCU--38" value="" style="shape=tableRow;horizontal=0;startSize=0;swimlaneHead=0;swimlaneBody=0;fillColor=none;collapsible=0;dropTarget=0;points=[[0,0.5],[1,0.5]];portConstraint=eastwest;top=0;left=0;right=0;bottom=1;sketch=0;" parent="0gxv1SQT3VpTeHQqMCU--37" vertex="1">
          <mxGeometry y="30" width="421" height="30" as="geometry" />
        </mxCell>
        <mxCell id="0gxv1SQT3VpTeHQqMCU--39" value="PK" style="shape=partialRectangle;connectable=0;fillColor=#fff2cc;top=0;left=0;bottom=0;right=0;fontStyle=1;overflow=hidden;sketch=0;strokeColor=#d6b656;" parent="0gxv1SQT3VpTeHQqMCU--38" vertex="1">
          <mxGeometry width="30" height="30" as="geometry">
            <mxRectangle width="30" height="30" as="alternateBounds" />
          </mxGeometry>
        </mxCell>
        <mxCell id="0gxv1SQT3VpTeHQqMCU--40" value="id bigint auto increment" style="shape=partialRectangle;connectable=0;fillColor=#fff2cc;top=0;left=0;bottom=0;right=0;align=left;spacingLeft=6;fontStyle=1;overflow=hidden;sketch=0;strokeColor=#d6b656;" parent="0gxv1SQT3VpTeHQqMCU--38" vertex="1">
          <mxGeometry x="30" width="313" height="30" as="geometry">
            <mxRectangle width="313" height="30" as="alternateBounds" />
          </mxGeometry>
        </mxCell>
        <mxCell id="0gxv1SQT3VpTeHQqMCU--184" style="shape=partialRectangle;connectable=0;fillColor=#fff2cc;top=0;left=0;bottom=0;right=0;align=left;spacingLeft=6;fontStyle=1;overflow=hidden;sketch=0;strokeColor=#d6b656;" parent="0gxv1SQT3VpTeHQqMCU--38" vertex="1">
          <mxGeometry x="343" width="78" height="30" as="geometry">
            <mxRectangle width="78" height="30" as="alternateBounds" />
          </mxGeometry>
        </mxCell>
        <mxCell id="0gxv1SQT3VpTeHQqMCU--41" value="" style="shape=tableRow;horizontal=0;startSize=0;swimlaneHead=0;swimlaneBody=0;fillColor=none;collapsible=0;dropTarget=0;points=[[0,0.5],[1,0.5]];portConstraint=eastwest;top=0;left=0;right=0;bottom=0;sketch=0;" parent="0gxv1SQT3VpTeHQqMCU--37" vertex="1">
          <mxGeometry y="60" width="421" height="30" as="geometry" />
        </mxCell>
        <mxCell id="0gxv1SQT3VpTeHQqMCU--42" value="" style="shape=partialRectangle;connectable=0;top=0;left=0;bottom=0;right=0;editable=1;overflow=hidden;sketch=0;" parent="0gxv1SQT3VpTeHQqMCU--41" vertex="1">
          <mxGeometry width="30" height="30" as="geometry">
            <mxRectangle width="30" height="30" as="alternateBounds" />
          </mxGeometry>
        </mxCell>
        <mxCell id="0gxv1SQT3VpTeHQqMCU--43" value="user_id varchar(36) not null" style="shape=partialRectangle;connectable=0;top=0;left=0;bottom=0;right=0;align=left;spacingLeft=6;overflow=hidden;sketch=0;" parent="0gxv1SQT3VpTeHQqMCU--41" vertex="1">
          <mxGeometry x="30" width="313" height="30" as="geometry">
            <mxRectangle width="313" height="30" as="alternateBounds" />
          </mxGeometry>
        </mxCell>
        <mxCell id="0gxv1SQT3VpTeHQqMCU--185" style="shape=partialRectangle;connectable=0;top=0;left=0;bottom=0;right=0;align=left;spacingLeft=6;overflow=hidden;sketch=0;" parent="0gxv1SQT3VpTeHQqMCU--41" vertex="1">
          <mxGeometry x="343" width="78" height="30" as="geometry">
            <mxRectangle width="78" height="30" as="alternateBounds" />
          </mxGeometry>
        </mxCell>
        <mxCell id="0gxv1SQT3VpTeHQqMCU--47" value="" style="shape=tableRow;horizontal=0;startSize=0;swimlaneHead=0;swimlaneBody=0;fillColor=none;collapsible=0;dropTarget=0;points=[[0,0.5],[1,0.5]];portConstraint=eastwest;top=0;left=0;right=0;bottom=0;sketch=0;" parent="0gxv1SQT3VpTeHQqMCU--37" vertex="1">
          <mxGeometry y="90" width="421" height="28" as="geometry" />
        </mxCell>
        <mxCell id="0gxv1SQT3VpTeHQqMCU--48" value="" style="shape=partialRectangle;connectable=0;fillColor=none;top=0;left=0;bottom=0;right=0;editable=1;overflow=hidden;sketch=0;" parent="0gxv1SQT3VpTeHQqMCU--47" vertex="1">
          <mxGeometry width="30" height="28" as="geometry">
            <mxRectangle width="30" height="28" as="alternateBounds" />
          </mxGeometry>
        </mxCell>
        <mxCell id="0gxv1SQT3VpTeHQqMCU--49" value="created_at datetime default CURRENT_TIMESTAMP" style="shape=partialRectangle;connectable=0;fillColor=none;top=0;left=0;bottom=0;right=0;align=left;spacingLeft=6;overflow=hidden;sketch=0;" parent="0gxv1SQT3VpTeHQqMCU--47" vertex="1">
          <mxGeometry x="30" width="313" height="28" as="geometry">
            <mxRectangle width="313" height="28" as="alternateBounds" />
          </mxGeometry>
        </mxCell>
        <mxCell id="0gxv1SQT3VpTeHQqMCU--187" style="shape=partialRectangle;connectable=0;fillColor=none;top=0;left=0;bottom=0;right=0;align=left;spacingLeft=6;overflow=hidden;sketch=0;" parent="0gxv1SQT3VpTeHQqMCU--47" vertex="1">
          <mxGeometry x="343" width="78" height="28" as="geometry">
            <mxRectangle width="78" height="28" as="alternateBounds" />
          </mxGeometry>
        </mxCell>
        <mxCell id="0gxv1SQT3VpTeHQqMCU--247" style="shape=tableRow;horizontal=0;startSize=0;swimlaneHead=0;swimlaneBody=0;fillColor=none;collapsible=0;dropTarget=0;points=[[0,0.5],[1,0.5]];portConstraint=eastwest;top=0;left=0;right=0;bottom=0;sketch=0;" parent="0gxv1SQT3VpTeHQqMCU--37" vertex="1">
          <mxGeometry y="118" width="421" height="32" as="geometry" />
        </mxCell>
        <mxCell id="0gxv1SQT3VpTeHQqMCU--248" style="shape=partialRectangle;connectable=0;fillColor=none;top=0;left=0;bottom=0;right=0;editable=1;overflow=hidden;sketch=0;" parent="0gxv1SQT3VpTeHQqMCU--247" vertex="1">
          <mxGeometry width="30" height="32" as="geometry">
            <mxRectangle width="30" height="32" as="alternateBounds" />
          </mxGeometry>
        </mxCell>
        <mxCell id="0gxv1SQT3VpTeHQqMCU--249" value="updated_at datetime" style="shape=partialRectangle;connectable=0;fillColor=none;top=0;left=0;bottom=0;right=0;align=left;spacingLeft=6;overflow=hidden;sketch=0;" parent="0gxv1SQT3VpTeHQqMCU--247" vertex="1">
          <mxGeometry x="30" width="313" height="32" as="geometry">
            <mxRectangle width="313" height="32" as="alternateBounds" />
          </mxGeometry>
        </mxCell>
        <mxCell id="0gxv1SQT3VpTeHQqMCU--250" style="shape=partialRectangle;connectable=0;fillColor=none;top=0;left=0;bottom=0;right=0;align=left;spacingLeft=6;overflow=hidden;sketch=0;" parent="0gxv1SQT3VpTeHQqMCU--247" vertex="1">
          <mxGeometry x="343" width="78" height="32" as="geometry">
            <mxRectangle width="78" height="32" as="alternateBounds" />
          </mxGeometry>
        </mxCell>
        <mxCell id="0gxv1SQT3VpTeHQqMCU--243" style="shape=tableRow;horizontal=0;startSize=0;swimlaneHead=0;swimlaneBody=0;fillColor=none;collapsible=0;dropTarget=0;points=[[0,0.5],[1,0.5]];portConstraint=eastwest;top=0;left=0;right=0;bottom=0;sketch=0;" parent="0gxv1SQT3VpTeHQqMCU--37" vertex="1">
          <mxGeometry y="150" width="421" height="30" as="geometry" />
        </mxCell>
        <mxCell id="0gxv1SQT3VpTeHQqMCU--244" style="shape=partialRectangle;connectable=0;fillColor=none;top=0;left=0;bottom=0;right=0;editable=1;overflow=hidden;sketch=0;" parent="0gxv1SQT3VpTeHQqMCU--243" vertex="1">
          <mxGeometry width="30" height="30" as="geometry">
            <mxRectangle width="30" height="30" as="alternateBounds" />
          </mxGeometry>
        </mxCell>
        <mxCell id="0gxv1SQT3VpTeHQqMCU--245" value="deleted_at datetime" style="shape=partialRectangle;connectable=0;fillColor=none;top=0;left=0;bottom=0;right=0;align=left;spacingLeft=6;overflow=hidden;sketch=0;" parent="0gxv1SQT3VpTeHQqMCU--243" vertex="1">
          <mxGeometry x="30" width="313" height="30" as="geometry">
            <mxRectangle width="313" height="30" as="alternateBounds" />
          </mxGeometry>
        </mxCell>
        <mxCell id="0gxv1SQT3VpTeHQqMCU--246" style="shape=partialRectangle;connectable=0;fillColor=none;top=0;left=0;bottom=0;right=0;align=left;spacingLeft=6;overflow=hidden;sketch=0;" parent="0gxv1SQT3VpTeHQqMCU--243" vertex="1">
          <mxGeometry x="343" width="78" height="30" as="geometry">
            <mxRectangle width="78" height="30" as="alternateBounds" />
          </mxGeometry>
        </mxCell>
        <mxCell id="0gxv1SQT3VpTeHQqMCU--69" value="회원" style="rounded=0;whiteSpace=wrap;html=1;shadow=0;dashed=1;sketch=0;fontFamily=Helvetica;fontSize=14;fontColor=default;startSize=30;strokeColor=#CCCCCC;fillColor=#CCCCCC;gradientColor=none;" parent="1" vertex="1">
          <mxGeometry x="-844" y="62" width="120" height="60" as="geometry" />
        </mxCell>
        <mxCell id="0gxv1SQT3VpTeHQqMCU--74" value="item [상품]" style="shape=table;startSize=30;container=1;collapsible=1;childLayout=tableLayout;fixedRows=1;rowLines=1;fontStyle=1;align=center;resizeLast=1;sketch=0;fontSize=14;gradientColor=none;swimlaneFillColor=none;rounded=0;shadow=0;resizeLastRow=1;autosize=0;swimlaneLine=0;" parent="1" vertex="1">
          <mxGeometry x="-175" y="1034.7" width="396" height="271.57" as="geometry" />
        </mxCell>
        <mxCell id="0gxv1SQT3VpTeHQqMCU--75" value="" style="shape=tableRow;horizontal=0;startSize=0;swimlaneHead=0;swimlaneBody=0;fillColor=none;collapsible=0;dropTarget=0;points=[[0,0.5],[1,0.5]];portConstraint=eastwest;top=0;left=0;right=0;bottom=1;sketch=0;" parent="0gxv1SQT3VpTeHQqMCU--74" vertex="1">
          <mxGeometry y="30" width="396" height="30" as="geometry" />
        </mxCell>
        <mxCell id="0gxv1SQT3VpTeHQqMCU--76" value="PK" style="shape=partialRectangle;connectable=0;fillColor=#fff2cc;top=0;left=0;bottom=0;right=0;fontStyle=1;overflow=hidden;sketch=0;strokeColor=#d6b656;" parent="0gxv1SQT3VpTeHQqMCU--75" vertex="1">
          <mxGeometry width="30" height="30" as="geometry">
            <mxRectangle width="30" height="30" as="alternateBounds" />
          </mxGeometry>
        </mxCell>
        <mxCell id="0gxv1SQT3VpTeHQqMCU--77" value="id bigint auto increment" style="shape=partialRectangle;connectable=0;fillColor=#fff2cc;top=0;left=0;bottom=0;right=0;align=left;spacingLeft=6;fontStyle=1;overflow=hidden;sketch=0;strokeColor=#d6b656;" parent="0gxv1SQT3VpTeHQqMCU--75" vertex="1">
          <mxGeometry x="30" width="298.30434782608717" height="30" as="geometry">
            <mxRectangle width="298.30434782608717" height="30" as="alternateBounds" />
          </mxGeometry>
        </mxCell>
        <mxCell id="0gxv1SQT3VpTeHQqMCU--176" style="shape=partialRectangle;connectable=0;fillColor=#fff2cc;top=0;left=0;bottom=0;right=0;align=left;spacingLeft=6;fontStyle=1;overflow=hidden;sketch=0;strokeColor=#d6b656;" parent="0gxv1SQT3VpTeHQqMCU--75" vertex="1">
          <mxGeometry x="328.30434782608717" width="67.69565217391283" height="30" as="geometry">
            <mxRectangle width="67.69565217391283" height="30" as="alternateBounds" />
          </mxGeometry>
        </mxCell>
        <mxCell id="0gxv1SQT3VpTeHQqMCU--78" value="" style="shape=tableRow;horizontal=0;startSize=0;swimlaneHead=0;swimlaneBody=0;fillColor=none;collapsible=0;dropTarget=0;points=[[0,0.5],[1,0.5]];portConstraint=eastwest;top=0;left=0;right=0;bottom=0;sketch=0;" parent="0gxv1SQT3VpTeHQqMCU--74" vertex="1">
          <mxGeometry y="60" width="396" height="30" as="geometry" />
        </mxCell>
        <mxCell id="0gxv1SQT3VpTeHQqMCU--79" value="" style="shape=partialRectangle;connectable=0;fillColor=none;top=0;left=0;bottom=0;right=0;editable=1;overflow=hidden;sketch=0;" parent="0gxv1SQT3VpTeHQqMCU--78" vertex="1">
          <mxGeometry width="30" height="30" as="geometry">
            <mxRectangle width="30" height="30" as="alternateBounds" />
          </mxGeometry>
        </mxCell>
        <mxCell id="0gxv1SQT3VpTeHQqMCU--80" value="name varchar(64) not null" style="shape=partialRectangle;connectable=0;fillColor=none;top=0;left=0;bottom=0;right=0;align=left;spacingLeft=6;overflow=hidden;sketch=0;" parent="0gxv1SQT3VpTeHQqMCU--78" vertex="1">
          <mxGeometry x="30" width="298.30434782608717" height="30" as="geometry">
            <mxRectangle width="298.30434782608717" height="30" as="alternateBounds" />
          </mxGeometry>
        </mxCell>
        <mxCell id="0gxv1SQT3VpTeHQqMCU--177" style="shape=partialRectangle;connectable=0;fillColor=none;top=0;left=0;bottom=0;right=0;align=left;spacingLeft=6;overflow=hidden;sketch=0;" parent="0gxv1SQT3VpTeHQqMCU--78" vertex="1">
          <mxGeometry x="328.30434782608717" width="67.69565217391283" height="30" as="geometry">
            <mxRectangle width="67.69565217391283" height="30" as="alternateBounds" />
          </mxGeometry>
        </mxCell>
        <mxCell id="0gxv1SQT3VpTeHQqMCU--81" value="" style="shape=tableRow;horizontal=0;startSize=0;swimlaneHead=0;swimlaneBody=0;fillColor=none;collapsible=0;dropTarget=0;points=[[0,0.5],[1,0.5]];portConstraint=eastwest;top=0;left=0;right=0;bottom=0;sketch=0;" parent="0gxv1SQT3VpTeHQqMCU--74" vertex="1">
          <mxGeometry y="90" width="396" height="30" as="geometry" />
        </mxCell>
        <mxCell id="0gxv1SQT3VpTeHQqMCU--82" value="FK" style="shape=partialRectangle;connectable=0;fillColor=#f5f5f5;top=0;left=0;bottom=0;right=0;editable=1;overflow=hidden;sketch=0;fontColor=#333333;strokeColor=#666666;" parent="0gxv1SQT3VpTeHQqMCU--81" vertex="1">
          <mxGeometry width="30" height="30" as="geometry">
            <mxRectangle width="30" height="30" as="alternateBounds" />
          </mxGeometry>
        </mxCell>
        <mxCell id="0gxv1SQT3VpTeHQqMCU--83" value="category_id bigint not null" style="shape=partialRectangle;connectable=0;fillColor=#f5f5f5;top=0;left=0;bottom=0;right=0;align=left;spacingLeft=6;overflow=hidden;sketch=0;fontColor=#333333;strokeColor=#666666;" parent="0gxv1SQT3VpTeHQqMCU--81" vertex="1">
          <mxGeometry x="30" width="298.30434782608717" height="30" as="geometry">
            <mxRectangle width="298.30434782608717" height="30" as="alternateBounds" />
          </mxGeometry>
        </mxCell>
        <mxCell id="0gxv1SQT3VpTeHQqMCU--178" style="shape=partialRectangle;connectable=0;fillColor=#f5f5f5;top=0;left=0;bottom=0;right=0;align=left;spacingLeft=6;overflow=hidden;sketch=0;fontColor=#333333;strokeColor=#666666;" parent="0gxv1SQT3VpTeHQqMCU--81" vertex="1">
          <mxGeometry x="328.30434782608717" width="67.69565217391283" height="30" as="geometry">
            <mxRectangle width="67.69565217391283" height="30" as="alternateBounds" />
          </mxGeometry>
        </mxCell>
        <mxCell id="0gxv1SQT3VpTeHQqMCU--84" value="" style="shape=tableRow;horizontal=0;startSize=0;swimlaneHead=0;swimlaneBody=0;fillColor=none;collapsible=0;dropTarget=0;points=[[0,0.5],[1,0.5]];portConstraint=eastwest;top=0;left=0;right=0;bottom=0;sketch=0;" parent="0gxv1SQT3VpTeHQqMCU--74" vertex="1">
          <mxGeometry y="120" width="396" height="30" as="geometry" />
        </mxCell>
        <mxCell id="0gxv1SQT3VpTeHQqMCU--85" value="" style="shape=partialRectangle;connectable=0;fillColor=none;top=0;left=0;bottom=0;right=0;editable=1;overflow=hidden;sketch=0;" parent="0gxv1SQT3VpTeHQqMCU--84" vertex="1">
          <mxGeometry width="30" height="30" as="geometry">
            <mxRectangle width="30" height="30" as="alternateBounds" />
          </mxGeometry>
        </mxCell>
        <mxCell id="0gxv1SQT3VpTeHQqMCU--86" value="stock bigint not null" style="shape=partialRectangle;connectable=0;fillColor=none;top=0;left=0;bottom=0;right=0;align=left;spacingLeft=6;overflow=hidden;sketch=0;" parent="0gxv1SQT3VpTeHQqMCU--84" vertex="1">
          <mxGeometry x="30" width="298.30434782608717" height="30" as="geometry">
            <mxRectangle width="298.30434782608717" height="30" as="alternateBounds" />
          </mxGeometry>
        </mxCell>
        <mxCell id="0gxv1SQT3VpTeHQqMCU--179" style="shape=partialRectangle;connectable=0;fillColor=none;top=0;left=0;bottom=0;right=0;align=left;spacingLeft=6;overflow=hidden;sketch=0;" parent="0gxv1SQT3VpTeHQqMCU--84" vertex="1">
          <mxGeometry x="328.30434782608717" width="67.69565217391283" height="30" as="geometry">
            <mxRectangle width="67.69565217391283" height="30" as="alternateBounds" />
          </mxGeometry>
        </mxCell>
        <mxCell id="0gxv1SQT3VpTeHQqMCU--87" style="shape=tableRow;horizontal=0;startSize=0;swimlaneHead=0;swimlaneBody=0;fillColor=none;collapsible=0;dropTarget=0;points=[[0,0.5],[1,0.5]];portConstraint=eastwest;top=0;left=0;right=0;bottom=0;sketch=0;" parent="0gxv1SQT3VpTeHQqMCU--74" vertex="1">
          <mxGeometry y="150" width="396" height="30" as="geometry" />
        </mxCell>
        <mxCell id="0gxv1SQT3VpTeHQqMCU--88" value="FK" style="shape=partialRectangle;connectable=0;fillColor=#f5f5f5;top=0;left=0;bottom=0;right=0;editable=1;overflow=hidden;sketch=0;fontColor=#333333;strokeColor=#666666;" parent="0gxv1SQT3VpTeHQqMCU--87" vertex="1">
          <mxGeometry width="30" height="30" as="geometry">
            <mxRectangle width="30" height="30" as="alternateBounds" />
          </mxGeometry>
        </mxCell>
        <mxCell id="0gxv1SQT3VpTeHQqMCU--89" value="mall_id bigint not null" style="shape=partialRectangle;connectable=0;fillColor=#f5f5f5;top=0;left=0;bottom=0;right=0;align=left;spacingLeft=6;overflow=hidden;sketch=0;fontColor=#333333;strokeColor=#666666;" parent="0gxv1SQT3VpTeHQqMCU--87" vertex="1">
          <mxGeometry x="30" width="298.30434782608717" height="30" as="geometry">
            <mxRectangle width="298.30434782608717" height="30" as="alternateBounds" />
          </mxGeometry>
        </mxCell>
        <mxCell id="0gxv1SQT3VpTeHQqMCU--180" style="shape=partialRectangle;connectable=0;fillColor=#f5f5f5;top=0;left=0;bottom=0;right=0;align=left;spacingLeft=6;overflow=hidden;sketch=0;fontColor=#333333;strokeColor=#666666;" parent="0gxv1SQT3VpTeHQqMCU--87" vertex="1">
          <mxGeometry x="328.30434782608717" width="67.69565217391283" height="30" as="geometry">
            <mxRectangle width="67.69565217391283" height="30" as="alternateBounds" />
          </mxGeometry>
        </mxCell>
        <mxCell id="0gxv1SQT3VpTeHQqMCU--90" style="shape=tableRow;horizontal=0;startSize=0;swimlaneHead=0;swimlaneBody=0;fillColor=none;collapsible=0;dropTarget=0;points=[[0,0.5],[1,0.5]];portConstraint=eastwest;top=0;left=0;right=0;bottom=0;sketch=0;" parent="0gxv1SQT3VpTeHQqMCU--74" vertex="1">
          <mxGeometry y="180" width="396" height="30" as="geometry" />
        </mxCell>
        <mxCell id="0gxv1SQT3VpTeHQqMCU--91" style="shape=partialRectangle;connectable=0;fillColor=none;top=0;left=0;bottom=0;right=0;editable=1;overflow=hidden;sketch=0;" parent="0gxv1SQT3VpTeHQqMCU--90" vertex="1">
          <mxGeometry width="30" height="30" as="geometry">
            <mxRectangle width="30" height="30" as="alternateBounds" />
          </mxGeometry>
        </mxCell>
        <mxCell id="0gxv1SQT3VpTeHQqMCU--92" value="created_at datetime default CURRENT_TIMESTAMP" style="shape=partialRectangle;connectable=0;fillColor=none;top=0;left=0;bottom=0;right=0;align=left;spacingLeft=6;overflow=hidden;sketch=0;" parent="0gxv1SQT3VpTeHQqMCU--90" vertex="1">
          <mxGeometry x="30" width="298.30434782608717" height="30" as="geometry">
            <mxRectangle width="298.30434782608717" height="30" as="alternateBounds" />
          </mxGeometry>
        </mxCell>
        <mxCell id="0gxv1SQT3VpTeHQqMCU--181" style="shape=partialRectangle;connectable=0;fillColor=none;top=0;left=0;bottom=0;right=0;align=left;spacingLeft=6;overflow=hidden;sketch=0;" parent="0gxv1SQT3VpTeHQqMCU--90" vertex="1">
          <mxGeometry x="328.30434782608717" width="67.69565217391283" height="30" as="geometry">
            <mxRectangle width="67.69565217391283" height="30" as="alternateBounds" />
          </mxGeometry>
        </mxCell>
        <mxCell id="0gxv1SQT3VpTeHQqMCU--93" style="shape=tableRow;horizontal=0;startSize=0;swimlaneHead=0;swimlaneBody=0;fillColor=none;collapsible=0;dropTarget=0;points=[[0,0.5],[1,0.5]];portConstraint=eastwest;top=0;left=0;right=0;bottom=0;sketch=0;" parent="0gxv1SQT3VpTeHQqMCU--74" vertex="1">
          <mxGeometry y="210" width="396" height="30" as="geometry" />
        </mxCell>
        <mxCell id="0gxv1SQT3VpTeHQqMCU--94" style="shape=partialRectangle;connectable=0;fillColor=none;top=0;left=0;bottom=0;right=0;editable=1;overflow=hidden;sketch=0;" parent="0gxv1SQT3VpTeHQqMCU--93" vertex="1">
          <mxGeometry width="30" height="30" as="geometry">
            <mxRectangle width="30" height="30" as="alternateBounds" />
          </mxGeometry>
        </mxCell>
        <mxCell id="0gxv1SQT3VpTeHQqMCU--95" value="updated_at datetime" style="shape=partialRectangle;connectable=0;fillColor=none;top=0;left=0;bottom=0;right=0;align=left;spacingLeft=6;overflow=hidden;sketch=0;" parent="0gxv1SQT3VpTeHQqMCU--93" vertex="1">
          <mxGeometry x="30" width="298.30434782608717" height="30" as="geometry">
            <mxRectangle width="298.30434782608717" height="30" as="alternateBounds" />
          </mxGeometry>
        </mxCell>
        <mxCell id="0gxv1SQT3VpTeHQqMCU--182" style="shape=partialRectangle;connectable=0;fillColor=none;top=0;left=0;bottom=0;right=0;align=left;spacingLeft=6;overflow=hidden;sketch=0;" parent="0gxv1SQT3VpTeHQqMCU--93" vertex="1">
          <mxGeometry x="328.30434782608717" width="67.69565217391283" height="30" as="geometry">
            <mxRectangle width="67.69565217391283" height="30" as="alternateBounds" />
          </mxGeometry>
        </mxCell>
        <mxCell id="0gxv1SQT3VpTeHQqMCU--96" style="shape=tableRow;horizontal=0;startSize=0;swimlaneHead=0;swimlaneBody=0;fillColor=none;collapsible=0;dropTarget=0;points=[[0,0.5],[1,0.5]];portConstraint=eastwest;top=0;left=0;right=0;bottom=0;sketch=0;" parent="0gxv1SQT3VpTeHQqMCU--74" vertex="1">
          <mxGeometry y="240" width="396" height="32" as="geometry" />
        </mxCell>
        <mxCell id="0gxv1SQT3VpTeHQqMCU--97" style="shape=partialRectangle;connectable=0;fillColor=none;top=0;left=0;bottom=0;right=0;editable=1;overflow=hidden;sketch=0;" parent="0gxv1SQT3VpTeHQqMCU--96" vertex="1">
          <mxGeometry width="30" height="32" as="geometry">
            <mxRectangle width="30" height="32" as="alternateBounds" />
          </mxGeometry>
        </mxCell>
        <mxCell id="0gxv1SQT3VpTeHQqMCU--98" value="deleted_at datetime" style="shape=partialRectangle;connectable=0;fillColor=none;top=0;left=0;bottom=0;right=0;align=left;spacingLeft=6;overflow=hidden;sketch=0;" parent="0gxv1SQT3VpTeHQqMCU--96" vertex="1">
          <mxGeometry x="30" width="298.30434782608717" height="32" as="geometry">
            <mxRectangle width="298.30434782608717" height="32" as="alternateBounds" />
          </mxGeometry>
        </mxCell>
        <mxCell id="0gxv1SQT3VpTeHQqMCU--183" style="shape=partialRectangle;connectable=0;fillColor=none;top=0;left=0;bottom=0;right=0;align=left;spacingLeft=6;overflow=hidden;sketch=0;" parent="0gxv1SQT3VpTeHQqMCU--96" vertex="1">
          <mxGeometry x="328.30434782608717" width="67.69565217391283" height="32" as="geometry">
            <mxRectangle width="67.69565217391283" height="32" as="alternateBounds" />
          </mxGeometry>
        </mxCell>
        <mxCell id="0gxv1SQT3VpTeHQqMCU--105" value="category [상품 카테고리]" style="shape=table;startSize=30;container=1;collapsible=1;childLayout=tableLayout;fixedRows=1;rowLines=1;fontStyle=1;align=center;resizeLast=1;sketch=0;fontSize=14;gradientColor=none;swimlaneFillColor=none;rounded=0;shadow=0;resizeLastRow=1;autosize=0;" parent="1" vertex="1">
          <mxGeometry x="-175" y="782" width="396" height="208.7" as="geometry" />
        </mxCell>
        <mxCell id="0gxv1SQT3VpTeHQqMCU--106" value="" style="shape=tableRow;horizontal=0;startSize=0;swimlaneHead=0;swimlaneBody=0;fillColor=none;collapsible=0;dropTarget=0;points=[[0,0.5],[1,0.5]];portConstraint=eastwest;top=0;left=0;right=0;bottom=1;sketch=0;" parent="0gxv1SQT3VpTeHQqMCU--105" vertex="1">
          <mxGeometry y="30" width="396" height="30" as="geometry" />
        </mxCell>
        <mxCell id="0gxv1SQT3VpTeHQqMCU--107" value="PK" style="shape=partialRectangle;connectable=0;fillColor=#fff2cc;top=0;left=0;bottom=0;right=0;fontStyle=1;overflow=hidden;sketch=0;strokeColor=#d6b656;" parent="0gxv1SQT3VpTeHQqMCU--106" vertex="1">
          <mxGeometry width="30" height="30" as="geometry">
            <mxRectangle width="30" height="30" as="alternateBounds" />
          </mxGeometry>
        </mxCell>
        <mxCell id="0gxv1SQT3VpTeHQqMCU--108" value="id bigint auto increment" style="shape=partialRectangle;connectable=0;fillColor=#fff2cc;top=0;left=0;bottom=0;right=0;align=left;spacingLeft=6;fontStyle=1;overflow=hidden;sketch=0;strokeColor=#d6b656;" parent="0gxv1SQT3VpTeHQqMCU--106" vertex="1">
          <mxGeometry x="30" width="298.95652173913066" height="30" as="geometry">
            <mxRectangle width="298.95652173913066" height="30" as="alternateBounds" />
          </mxGeometry>
        </mxCell>
        <mxCell id="0gxv1SQT3VpTeHQqMCU--170" style="shape=partialRectangle;connectable=0;fillColor=#fff2cc;top=0;left=0;bottom=0;right=0;align=left;spacingLeft=6;fontStyle=1;overflow=hidden;sketch=0;strokeColor=#d6b656;" parent="0gxv1SQT3VpTeHQqMCU--106" vertex="1">
          <mxGeometry x="328.95652173913066" width="67.04347826086934" height="30" as="geometry">
            <mxRectangle width="67.04347826086934" height="30" as="alternateBounds" />
          </mxGeometry>
        </mxCell>
        <mxCell id="0gxv1SQT3VpTeHQqMCU--109" value="" style="shape=tableRow;horizontal=0;startSize=0;swimlaneHead=0;swimlaneBody=0;fillColor=none;collapsible=0;dropTarget=0;points=[[0,0.5],[1,0.5]];portConstraint=eastwest;top=0;left=0;right=0;bottom=0;sketch=0;" parent="0gxv1SQT3VpTeHQqMCU--105" vertex="1">
          <mxGeometry y="60" width="396" height="30" as="geometry" />
        </mxCell>
        <mxCell id="0gxv1SQT3VpTeHQqMCU--110" value="" style="shape=partialRectangle;connectable=0;fillColor=none;top=0;left=0;bottom=0;right=0;editable=1;overflow=hidden;sketch=0;" parent="0gxv1SQT3VpTeHQqMCU--109" vertex="1">
          <mxGeometry width="30" height="30" as="geometry">
            <mxRectangle width="30" height="30" as="alternateBounds" />
          </mxGeometry>
        </mxCell>
        <mxCell id="0gxv1SQT3VpTeHQqMCU--111" value="name varchar(64) not null" style="shape=partialRectangle;connectable=0;fillColor=none;top=0;left=0;bottom=0;right=0;align=left;spacingLeft=6;overflow=hidden;sketch=0;" parent="0gxv1SQT3VpTeHQqMCU--109" vertex="1">
          <mxGeometry x="30" width="298.95652173913066" height="30" as="geometry">
            <mxRectangle width="298.95652173913066" height="30" as="alternateBounds" />
          </mxGeometry>
        </mxCell>
        <mxCell id="0gxv1SQT3VpTeHQqMCU--171" style="shape=partialRectangle;connectable=0;fillColor=none;top=0;left=0;bottom=0;right=0;align=left;spacingLeft=6;overflow=hidden;sketch=0;" parent="0gxv1SQT3VpTeHQqMCU--109" vertex="1">
          <mxGeometry x="328.95652173913066" width="67.04347826086934" height="30" as="geometry">
            <mxRectangle width="67.04347826086934" height="30" as="alternateBounds" />
          </mxGeometry>
        </mxCell>
        <mxCell id="0gxv1SQT3VpTeHQqMCU--115" value="" style="shape=tableRow;horizontal=0;startSize=0;swimlaneHead=0;swimlaneBody=0;fillColor=none;collapsible=0;dropTarget=0;points=[[0,0.5],[1,0.5]];portConstraint=eastwest;top=0;left=0;right=0;bottom=0;sketch=0;" parent="0gxv1SQT3VpTeHQqMCU--105" vertex="1">
          <mxGeometry y="90" width="396" height="29" as="geometry" />
        </mxCell>
        <mxCell id="0gxv1SQT3VpTeHQqMCU--116" value="" style="shape=partialRectangle;connectable=0;fillColor=none;top=0;left=0;bottom=0;right=0;editable=1;overflow=hidden;sketch=0;" parent="0gxv1SQT3VpTeHQqMCU--115" vertex="1">
          <mxGeometry width="30" height="29" as="geometry">
            <mxRectangle width="30" height="29" as="alternateBounds" />
          </mxGeometry>
        </mxCell>
        <mxCell id="0gxv1SQT3VpTeHQqMCU--117" value="level bigint not null" style="shape=partialRectangle;connectable=0;fillColor=none;top=0;left=0;bottom=0;right=0;align=left;spacingLeft=6;overflow=hidden;sketch=0;" parent="0gxv1SQT3VpTeHQqMCU--115" vertex="1">
          <mxGeometry x="30" width="298.95652173913066" height="29" as="geometry">
            <mxRectangle width="298.95652173913066" height="29" as="alternateBounds" />
          </mxGeometry>
        </mxCell>
        <mxCell id="0gxv1SQT3VpTeHQqMCU--172" style="shape=partialRectangle;connectable=0;fillColor=none;top=0;left=0;bottom=0;right=0;align=left;spacingLeft=6;overflow=hidden;sketch=0;" parent="0gxv1SQT3VpTeHQqMCU--115" vertex="1">
          <mxGeometry x="328.95652173913066" width="67.04347826086934" height="29" as="geometry">
            <mxRectangle width="67.04347826086934" height="29" as="alternateBounds" />
          </mxGeometry>
        </mxCell>
        <mxCell id="0gxv1SQT3VpTeHQqMCU--112" value="" style="shape=tableRow;horizontal=0;startSize=0;swimlaneHead=0;swimlaneBody=0;fillColor=none;collapsible=0;dropTarget=0;points=[[0,0.5],[1,0.5]];portConstraint=eastwest;top=0;left=0;right=0;bottom=0;sketch=0;" parent="0gxv1SQT3VpTeHQqMCU--105" vertex="1">
          <mxGeometry y="119" width="396" height="30" as="geometry" />
        </mxCell>
        <mxCell id="0gxv1SQT3VpTeHQqMCU--113" value="FK" style="shape=partialRectangle;connectable=0;fillColor=#f5f5f5;top=0;left=0;bottom=0;right=0;editable=1;overflow=hidden;sketch=0;fontColor=#333333;strokeColor=#666666;" parent="0gxv1SQT3VpTeHQqMCU--112" vertex="1">
          <mxGeometry width="30" height="30" as="geometry">
            <mxRectangle width="30" height="30" as="alternateBounds" />
          </mxGeometry>
        </mxCell>
        <mxCell id="0gxv1SQT3VpTeHQqMCU--114" value="parent_id bigint not null" style="shape=partialRectangle;connectable=0;fillColor=#f5f5f5;top=0;left=0;bottom=0;right=0;align=left;spacingLeft=6;overflow=hidden;sketch=0;fontColor=#333333;strokeColor=#666666;" parent="0gxv1SQT3VpTeHQqMCU--112" vertex="1">
          <mxGeometry x="30" width="298.95652173913066" height="30" as="geometry">
            <mxRectangle width="298.95652173913066" height="30" as="alternateBounds" />
          </mxGeometry>
        </mxCell>
        <mxCell id="0gxv1SQT3VpTeHQqMCU--173" style="shape=partialRectangle;connectable=0;fillColor=#f5f5f5;top=0;left=0;bottom=0;right=0;align=left;spacingLeft=6;overflow=hidden;sketch=0;fontColor=#333333;strokeColor=#666666;" parent="0gxv1SQT3VpTeHQqMCU--112" vertex="1">
          <mxGeometry x="328.95652173913066" width="67.04347826086934" height="30" as="geometry">
            <mxRectangle width="67.04347826086934" height="30" as="alternateBounds" />
          </mxGeometry>
        </mxCell>
        <mxCell id="0gxv1SQT3VpTeHQqMCU--121" style="shape=tableRow;horizontal=0;startSize=0;swimlaneHead=0;swimlaneBody=0;fillColor=none;collapsible=0;dropTarget=0;points=[[0,0.5],[1,0.5]];portConstraint=eastwest;top=0;left=0;right=0;bottom=0;sketch=0;" parent="0gxv1SQT3VpTeHQqMCU--105" vertex="1">
          <mxGeometry y="149" width="396" height="30" as="geometry" />
        </mxCell>
        <mxCell id="0gxv1SQT3VpTeHQqMCU--122" style="shape=partialRectangle;connectable=0;fillColor=none;top=0;left=0;bottom=0;right=0;editable=1;overflow=hidden;sketch=0;" parent="0gxv1SQT3VpTeHQqMCU--121" vertex="1">
          <mxGeometry width="30" height="30" as="geometry">
            <mxRectangle width="30" height="30" as="alternateBounds" />
          </mxGeometry>
        </mxCell>
        <mxCell id="0gxv1SQT3VpTeHQqMCU--123" value="created_at datetime default CURRENT_TIMESTAMP" style="shape=partialRectangle;connectable=0;fillColor=none;top=0;left=0;bottom=0;right=0;align=left;spacingLeft=6;overflow=hidden;sketch=0;" parent="0gxv1SQT3VpTeHQqMCU--121" vertex="1">
          <mxGeometry x="30" width="298.95652173913066" height="30" as="geometry">
            <mxRectangle width="298.95652173913066" height="30" as="alternateBounds" />
          </mxGeometry>
        </mxCell>
        <mxCell id="0gxv1SQT3VpTeHQqMCU--174" style="shape=partialRectangle;connectable=0;fillColor=none;top=0;left=0;bottom=0;right=0;align=left;spacingLeft=6;overflow=hidden;sketch=0;" parent="0gxv1SQT3VpTeHQqMCU--121" vertex="1">
          <mxGeometry x="328.95652173913066" width="67.04347826086934" height="30" as="geometry">
            <mxRectangle width="67.04347826086934" height="30" as="alternateBounds" />
          </mxGeometry>
        </mxCell>
        <mxCell id="0gxv1SQT3VpTeHQqMCU--124" style="shape=tableRow;horizontal=0;startSize=0;swimlaneHead=0;swimlaneBody=0;fillColor=none;collapsible=0;dropTarget=0;points=[[0,0.5],[1,0.5]];portConstraint=eastwest;top=0;left=0;right=0;bottom=0;sketch=0;" parent="0gxv1SQT3VpTeHQqMCU--105" vertex="1">
          <mxGeometry y="179" width="396" height="30" as="geometry" />
        </mxCell>
        <mxCell id="0gxv1SQT3VpTeHQqMCU--125" style="shape=partialRectangle;connectable=0;fillColor=none;top=0;left=0;bottom=0;right=0;editable=1;overflow=hidden;sketch=0;" parent="0gxv1SQT3VpTeHQqMCU--124" vertex="1">
          <mxGeometry width="30" height="30" as="geometry">
            <mxRectangle width="30" height="30" as="alternateBounds" />
          </mxGeometry>
        </mxCell>
        <mxCell id="0gxv1SQT3VpTeHQqMCU--126" value="updated_at datetime" style="shape=partialRectangle;connectable=0;fillColor=none;top=0;left=0;bottom=0;right=0;align=left;spacingLeft=6;overflow=hidden;sketch=0;" parent="0gxv1SQT3VpTeHQqMCU--124" vertex="1">
          <mxGeometry x="30" width="298.95652173913066" height="30" as="geometry">
            <mxRectangle width="298.95652173913066" height="30" as="alternateBounds" />
          </mxGeometry>
        </mxCell>
        <mxCell id="0gxv1SQT3VpTeHQqMCU--175" style="shape=partialRectangle;connectable=0;fillColor=none;top=0;left=0;bottom=0;right=0;align=left;spacingLeft=6;overflow=hidden;sketch=0;" parent="0gxv1SQT3VpTeHQqMCU--124" vertex="1">
          <mxGeometry x="328.95652173913066" width="67.04347826086934" height="30" as="geometry">
            <mxRectangle width="67.04347826086934" height="30" as="alternateBounds" />
          </mxGeometry>
        </mxCell>
        <mxCell id="0gxv1SQT3VpTeHQqMCU--130" style="edgeStyle=orthogonalEdgeStyle;sketch=0;orthogonalLoop=1;jettySize=auto;html=1;exitX=0;exitY=0.5;exitDx=0;exitDy=0;fontFamily=Helvetica;fontSize=14;fontColor=default;startSize=30;rounded=0;" parent="1" source="0gxv1SQT3VpTeHQqMCU--81" edge="1">
          <mxGeometry relative="1" as="geometry">
            <mxPoint x="-175" y="825" as="targetPoint" />
            <Array as="points">
              <mxPoint x="-210" y="1140" />
              <mxPoint x="-210" y="825" />
            </Array>
          </mxGeometry>
        </mxCell>
        <mxCell id="0gxv1SQT3VpTeHQqMCU--131" value="mall [판매몰]" style="shape=table;startSize=30;container=1;collapsible=1;childLayout=tableLayout;fixedRows=1;rowLines=1;fontStyle=1;align=center;resizeLast=1;sketch=0;fontSize=14;gradientColor=none;swimlaneFillColor=none;rounded=0;shadow=0;resizeLastRow=1;autosize=0;" parent="1" vertex="1">
          <mxGeometry x="-719" y="826" width="414" height="204.94818840579745" as="geometry" />
        </mxCell>
        <mxCell id="0gxv1SQT3VpTeHQqMCU--132" value="" style="shape=tableRow;horizontal=0;startSize=0;swimlaneHead=0;swimlaneBody=0;fillColor=none;collapsible=0;dropTarget=0;points=[[0,0.5],[1,0.5]];portConstraint=eastwest;top=0;left=0;right=0;bottom=1;sketch=0;" parent="0gxv1SQT3VpTeHQqMCU--131" vertex="1">
          <mxGeometry y="30" width="414" height="30" as="geometry" />
        </mxCell>
        <mxCell id="0gxv1SQT3VpTeHQqMCU--133" value="PK" style="shape=partialRectangle;connectable=0;fillColor=#fff2cc;top=0;left=0;bottom=0;right=0;fontStyle=1;overflow=hidden;sketch=0;strokeColor=#d6b656;" parent="0gxv1SQT3VpTeHQqMCU--132" vertex="1">
          <mxGeometry width="30" height="30" as="geometry">
            <mxRectangle width="30" height="30" as="alternateBounds" />
          </mxGeometry>
        </mxCell>
        <mxCell id="0gxv1SQT3VpTeHQqMCU--134" value="id bigint auto increment" style="shape=partialRectangle;connectable=0;fillColor=#fff2cc;top=0;left=0;bottom=0;right=0;align=left;spacingLeft=6;fontStyle=1;overflow=hidden;sketch=0;strokeColor=#d6b656;" parent="0gxv1SQT3VpTeHQqMCU--132" vertex="1">
          <mxGeometry x="30" width="309" height="30" as="geometry">
            <mxRectangle width="309" height="30" as="alternateBounds" />
          </mxGeometry>
        </mxCell>
        <mxCell id="0gxv1SQT3VpTeHQqMCU--164" style="shape=partialRectangle;connectable=0;fillColor=#fff2cc;top=0;left=0;bottom=0;right=0;align=left;spacingLeft=6;fontStyle=1;overflow=hidden;sketch=0;strokeColor=#d6b656;" parent="0gxv1SQT3VpTeHQqMCU--132" vertex="1">
          <mxGeometry x="339" width="75" height="30" as="geometry">
            <mxRectangle width="75" height="30" as="alternateBounds" />
          </mxGeometry>
        </mxCell>
        <mxCell id="0gxv1SQT3VpTeHQqMCU--135" value="" style="shape=tableRow;horizontal=0;startSize=0;swimlaneHead=0;swimlaneBody=0;fillColor=none;collapsible=0;dropTarget=0;points=[[0,0.5],[1,0.5]];portConstraint=eastwest;top=0;left=0;right=0;bottom=0;sketch=0;" parent="0gxv1SQT3VpTeHQqMCU--131" vertex="1">
          <mxGeometry y="60" width="414" height="30" as="geometry" />
        </mxCell>
        <mxCell id="0gxv1SQT3VpTeHQqMCU--136" value="" style="shape=partialRectangle;connectable=0;fillColor=none;top=0;left=0;bottom=0;right=0;editable=1;overflow=hidden;sketch=0;" parent="0gxv1SQT3VpTeHQqMCU--135" vertex="1">
          <mxGeometry width="30" height="30" as="geometry">
            <mxRectangle width="30" height="30" as="alternateBounds" />
          </mxGeometry>
        </mxCell>
        <mxCell id="0gxv1SQT3VpTeHQqMCU--137" value="name varchar(64) not null" style="shape=partialRectangle;connectable=0;fillColor=none;top=0;left=0;bottom=0;right=0;align=left;spacingLeft=6;overflow=hidden;sketch=0;" parent="0gxv1SQT3VpTeHQqMCU--135" vertex="1">
          <mxGeometry x="30" width="309" height="30" as="geometry">
            <mxRectangle width="309" height="30" as="alternateBounds" />
          </mxGeometry>
        </mxCell>
        <mxCell id="0gxv1SQT3VpTeHQqMCU--165" style="shape=partialRectangle;connectable=0;fillColor=none;top=0;left=0;bottom=0;right=0;align=left;spacingLeft=6;overflow=hidden;sketch=0;" parent="0gxv1SQT3VpTeHQqMCU--135" vertex="1">
          <mxGeometry x="339" width="75" height="30" as="geometry">
            <mxRectangle width="75" height="30" as="alternateBounds" />
          </mxGeometry>
        </mxCell>
        <mxCell id="0gxv1SQT3VpTeHQqMCU--138" value="" style="shape=tableRow;horizontal=0;startSize=0;swimlaneHead=0;swimlaneBody=0;fillColor=none;collapsible=0;dropTarget=0;points=[[0,0.5],[1,0.5]];portConstraint=eastwest;top=0;left=0;right=0;bottom=0;sketch=0;" parent="0gxv1SQT3VpTeHQqMCU--131" vertex="1">
          <mxGeometry y="90" width="414" height="29" as="geometry" />
        </mxCell>
        <mxCell id="0gxv1SQT3VpTeHQqMCU--139" value="" style="shape=partialRectangle;connectable=0;fillColor=none;top=0;left=0;bottom=0;right=0;editable=1;overflow=hidden;sketch=0;" parent="0gxv1SQT3VpTeHQqMCU--138" vertex="1">
          <mxGeometry width="30" height="29" as="geometry">
            <mxRectangle width="30" height="29" as="alternateBounds" />
          </mxGeometry>
        </mxCell>
        <mxCell id="0gxv1SQT3VpTeHQqMCU--140" value="description varchar(100) not null" style="shape=partialRectangle;connectable=0;fillColor=none;top=0;left=0;bottom=0;right=0;align=left;spacingLeft=6;overflow=hidden;sketch=0;" parent="0gxv1SQT3VpTeHQqMCU--138" vertex="1">
          <mxGeometry x="30" width="309" height="29" as="geometry">
            <mxRectangle width="309" height="29" as="alternateBounds" />
          </mxGeometry>
        </mxCell>
        <mxCell id="0gxv1SQT3VpTeHQqMCU--166" style="shape=partialRectangle;connectable=0;fillColor=none;top=0;left=0;bottom=0;right=0;align=left;spacingLeft=6;overflow=hidden;sketch=0;" parent="0gxv1SQT3VpTeHQqMCU--138" vertex="1">
          <mxGeometry x="339" width="75" height="29" as="geometry">
            <mxRectangle width="75" height="29" as="alternateBounds" />
          </mxGeometry>
        </mxCell>
        <mxCell id="0gxv1SQT3VpTeHQqMCU--141" value="" style="shape=tableRow;horizontal=0;startSize=0;swimlaneHead=0;swimlaneBody=0;fillColor=none;collapsible=0;dropTarget=0;points=[[0,0.5],[1,0.5]];portConstraint=eastwest;top=0;left=0;right=0;bottom=0;sketch=0;" parent="0gxv1SQT3VpTeHQqMCU--131" vertex="1">
          <mxGeometry y="119" width="414" height="26" as="geometry" />
        </mxCell>
        <mxCell id="0gxv1SQT3VpTeHQqMCU--142" value="" style="shape=partialRectangle;connectable=0;top=0;left=0;bottom=0;right=0;editable=1;overflow=hidden;sketch=0;strokeColor=#000000;" parent="0gxv1SQT3VpTeHQqMCU--141" vertex="1">
          <mxGeometry width="30" height="26" as="geometry">
            <mxRectangle width="30" height="26" as="alternateBounds" />
          </mxGeometry>
        </mxCell>
        <mxCell id="0gxv1SQT3VpTeHQqMCU--143" value="user_id varchar(36) not null" style="shape=partialRectangle;connectable=0;top=0;left=0;bottom=0;right=0;align=left;spacingLeft=6;overflow=hidden;sketch=0;strokeColor=#000000;gradientColor=none;" parent="0gxv1SQT3VpTeHQqMCU--141" vertex="1">
          <mxGeometry x="30" width="309" height="26" as="geometry">
            <mxRectangle width="309" height="26" as="alternateBounds" />
          </mxGeometry>
        </mxCell>
        <mxCell id="0gxv1SQT3VpTeHQqMCU--167" style="shape=partialRectangle;connectable=0;top=0;left=0;bottom=0;right=0;align=left;spacingLeft=6;overflow=hidden;sketch=0;strokeColor=#000000;" parent="0gxv1SQT3VpTeHQqMCU--141" vertex="1">
          <mxGeometry x="339" width="75" height="26" as="geometry">
            <mxRectangle width="75" height="26" as="alternateBounds" />
          </mxGeometry>
        </mxCell>
        <mxCell id="0gxv1SQT3VpTeHQqMCU--144" style="shape=tableRow;horizontal=0;startSize=0;swimlaneHead=0;swimlaneBody=0;fillColor=none;collapsible=0;dropTarget=0;points=[[0,0.5],[1,0.5]];portConstraint=eastwest;top=0;left=0;right=0;bottom=0;sketch=0;" parent="0gxv1SQT3VpTeHQqMCU--131" vertex="1">
          <mxGeometry y="145" width="414" height="30" as="geometry" />
        </mxCell>
        <mxCell id="0gxv1SQT3VpTeHQqMCU--145" style="shape=partialRectangle;connectable=0;fillColor=none;top=0;left=0;bottom=0;right=0;editable=1;overflow=hidden;sketch=0;" parent="0gxv1SQT3VpTeHQqMCU--144" vertex="1">
          <mxGeometry width="30" height="30" as="geometry">
            <mxRectangle width="30" height="30" as="alternateBounds" />
          </mxGeometry>
        </mxCell>
        <mxCell id="0gxv1SQT3VpTeHQqMCU--146" value="created_at datetime default CURRENT_TIMESTAMP" style="shape=partialRectangle;connectable=0;fillColor=none;top=0;left=0;bottom=0;right=0;align=left;spacingLeft=6;overflow=hidden;sketch=0;" parent="0gxv1SQT3VpTeHQqMCU--144" vertex="1">
          <mxGeometry x="30" width="309" height="30" as="geometry">
            <mxRectangle width="309" height="30" as="alternateBounds" />
          </mxGeometry>
        </mxCell>
        <mxCell id="0gxv1SQT3VpTeHQqMCU--168" style="shape=partialRectangle;connectable=0;fillColor=none;top=0;left=0;bottom=0;right=0;align=left;spacingLeft=6;overflow=hidden;sketch=0;" parent="0gxv1SQT3VpTeHQqMCU--144" vertex="1">
          <mxGeometry x="339" width="75" height="30" as="geometry">
            <mxRectangle width="75" height="30" as="alternateBounds" />
          </mxGeometry>
        </mxCell>
        <mxCell id="0gxv1SQT3VpTeHQqMCU--147" style="shape=tableRow;horizontal=0;startSize=0;swimlaneHead=0;swimlaneBody=0;fillColor=none;collapsible=0;dropTarget=0;points=[[0,0.5],[1,0.5]];portConstraint=eastwest;top=0;left=0;right=0;bottom=0;sketch=0;" parent="0gxv1SQT3VpTeHQqMCU--131" vertex="1">
          <mxGeometry y="175" width="414" height="30" as="geometry" />
        </mxCell>
        <mxCell id="0gxv1SQT3VpTeHQqMCU--148" style="shape=partialRectangle;connectable=0;fillColor=none;top=0;left=0;bottom=0;right=0;editable=1;overflow=hidden;sketch=0;" parent="0gxv1SQT3VpTeHQqMCU--147" vertex="1">
          <mxGeometry width="30" height="30" as="geometry">
            <mxRectangle width="30" height="30" as="alternateBounds" />
          </mxGeometry>
        </mxCell>
        <mxCell id="0gxv1SQT3VpTeHQqMCU--149" value="updated_at datetime" style="shape=partialRectangle;connectable=0;fillColor=none;top=0;left=0;bottom=0;right=0;align=left;spacingLeft=6;overflow=hidden;sketch=0;" parent="0gxv1SQT3VpTeHQqMCU--147" vertex="1">
          <mxGeometry x="30" width="309" height="30" as="geometry">
            <mxRectangle width="309" height="30" as="alternateBounds" />
          </mxGeometry>
        </mxCell>
        <mxCell id="0gxv1SQT3VpTeHQqMCU--169" style="shape=partialRectangle;connectable=0;fillColor=none;top=0;left=0;bottom=0;right=0;align=left;spacingLeft=6;overflow=hidden;sketch=0;" parent="0gxv1SQT3VpTeHQqMCU--147" vertex="1">
          <mxGeometry x="339" width="75" height="30" as="geometry">
            <mxRectangle width="75" height="30" as="alternateBounds" />
          </mxGeometry>
        </mxCell>
        <mxCell id="0gxv1SQT3VpTeHQqMCU--189" style="edgeStyle=orthogonalEdgeStyle;rounded=0;sketch=0;orthogonalLoop=1;jettySize=auto;html=1;exitX=0;exitY=0.5;exitDx=0;exitDy=0;entryX=1;entryY=0.5;entryDx=0;entryDy=0;fontFamily=Helvetica;fontSize=14;fontColor=default;startSize=30;" parent="1" source="0gxv1SQT3VpTeHQqMCU--87" target="0gxv1SQT3VpTeHQqMCU--141" edge="1">
          <mxGeometry relative="1" as="geometry" />
        </mxCell>
        <mxCell id="0gxv1SQT3VpTeHQqMCU--190" value="review [리뷰]" style="shape=table;startSize=30;container=1;collapsible=1;childLayout=tableLayout;fixedRows=1;rowLines=1;fontStyle=1;align=center;resizeLast=1;sketch=0;fontSize=14;gradientColor=none;swimlaneFillColor=none;rounded=0;shadow=0;resizeLastRow=1;autosize=0;" parent="1" vertex="1">
          <mxGeometry x="278" y="1034.7" width="396" height="268.7" as="geometry" />
        </mxCell>
        <mxCell id="0gxv1SQT3VpTeHQqMCU--191" value="" style="shape=tableRow;horizontal=0;startSize=0;swimlaneHead=0;swimlaneBody=0;fillColor=none;collapsible=0;dropTarget=0;points=[[0,0.5],[1,0.5]];portConstraint=eastwest;top=0;left=0;right=0;bottom=1;sketch=0;" parent="0gxv1SQT3VpTeHQqMCU--190" vertex="1">
          <mxGeometry y="30" width="396" height="30" as="geometry" />
        </mxCell>
        <mxCell id="0gxv1SQT3VpTeHQqMCU--192" value="PK" style="shape=partialRectangle;connectable=0;fillColor=#fff2cc;top=0;left=0;bottom=0;right=0;fontStyle=1;overflow=hidden;sketch=0;strokeColor=#d6b656;" parent="0gxv1SQT3VpTeHQqMCU--191" vertex="1">
          <mxGeometry width="30" height="30" as="geometry">
            <mxRectangle width="30" height="30" as="alternateBounds" />
          </mxGeometry>
        </mxCell>
        <mxCell id="0gxv1SQT3VpTeHQqMCU--193" value="id bigint auto increment" style="shape=partialRectangle;connectable=0;fillColor=#fff2cc;top=0;left=0;bottom=0;right=0;align=left;spacingLeft=6;fontStyle=1;overflow=hidden;sketch=0;strokeColor=#d6b656;" parent="0gxv1SQT3VpTeHQqMCU--191" vertex="1">
          <mxGeometry x="30" width="298.95652173913066" height="30" as="geometry">
            <mxRectangle width="298.95652173913066" height="30" as="alternateBounds" />
          </mxGeometry>
        </mxCell>
        <mxCell id="0gxv1SQT3VpTeHQqMCU--194" style="shape=partialRectangle;connectable=0;fillColor=#fff2cc;top=0;left=0;bottom=0;right=0;align=left;spacingLeft=6;fontStyle=1;overflow=hidden;sketch=0;strokeColor=#d6b656;" parent="0gxv1SQT3VpTeHQqMCU--191" vertex="1">
          <mxGeometry x="328.95652173913066" width="67.04347826086934" height="30" as="geometry">
            <mxRectangle width="67.04347826086934" height="30" as="alternateBounds" />
          </mxGeometry>
        </mxCell>
        <mxCell id="0gxv1SQT3VpTeHQqMCU--203" value="" style="shape=tableRow;horizontal=0;startSize=0;swimlaneHead=0;swimlaneBody=0;fillColor=none;collapsible=0;dropTarget=0;points=[[0,0.5],[1,0.5]];portConstraint=eastwest;top=0;left=0;right=0;bottom=0;sketch=0;" parent="0gxv1SQT3VpTeHQqMCU--190" vertex="1">
          <mxGeometry y="60" width="396" height="30" as="geometry" />
        </mxCell>
        <mxCell id="0gxv1SQT3VpTeHQqMCU--204" value="FK" style="shape=partialRectangle;connectable=0;fillColor=#f5f5f5;top=0;left=0;bottom=0;right=0;editable=1;overflow=hidden;sketch=0;fontColor=#333333;strokeColor=#666666;" parent="0gxv1SQT3VpTeHQqMCU--203" vertex="1">
          <mxGeometry width="30" height="30" as="geometry">
            <mxRectangle width="30" height="30" as="alternateBounds" />
          </mxGeometry>
        </mxCell>
        <mxCell id="0gxv1SQT3VpTeHQqMCU--205" value="item_id bigint not null" style="shape=partialRectangle;connectable=0;fillColor=#f5f5f5;top=0;left=0;bottom=0;right=0;align=left;spacingLeft=6;overflow=hidden;sketch=0;fontColor=#333333;strokeColor=#666666;" parent="0gxv1SQT3VpTeHQqMCU--203" vertex="1">
          <mxGeometry x="30" width="298.95652173913066" height="30" as="geometry">
            <mxRectangle width="298.95652173913066" height="30" as="alternateBounds" />
          </mxGeometry>
        </mxCell>
        <mxCell id="0gxv1SQT3VpTeHQqMCU--206" style="shape=partialRectangle;connectable=0;fillColor=#f5f5f5;top=0;left=0;bottom=0;right=0;align=left;spacingLeft=6;overflow=hidden;sketch=0;fontColor=#333333;strokeColor=#666666;" parent="0gxv1SQT3VpTeHQqMCU--203" vertex="1">
          <mxGeometry x="328.95652173913066" width="67.04347826086934" height="30" as="geometry">
            <mxRectangle width="67.04347826086934" height="30" as="alternateBounds" />
          </mxGeometry>
        </mxCell>
        <mxCell id="0gxv1SQT3VpTeHQqMCU--195" value="" style="shape=tableRow;horizontal=0;startSize=0;swimlaneHead=0;swimlaneBody=0;fillColor=none;collapsible=0;dropTarget=0;points=[[0,0.5],[1,0.5]];portConstraint=eastwest;top=0;left=0;right=0;bottom=0;sketch=0;" parent="0gxv1SQT3VpTeHQqMCU--190" vertex="1">
          <mxGeometry y="90" width="396" height="30" as="geometry" />
        </mxCell>
        <mxCell id="0gxv1SQT3VpTeHQqMCU--196" value="" style="shape=partialRectangle;connectable=0;fillColor=none;top=0;left=0;bottom=0;right=0;editable=1;overflow=hidden;sketch=0;" parent="0gxv1SQT3VpTeHQqMCU--195" vertex="1">
          <mxGeometry width="30" height="30" as="geometry">
            <mxRectangle width="30" height="30" as="alternateBounds" />
          </mxGeometry>
        </mxCell>
        <mxCell id="0gxv1SQT3VpTeHQqMCU--197" value="rate int not null" style="shape=partialRectangle;connectable=0;fillColor=none;top=0;left=0;bottom=0;right=0;align=left;spacingLeft=6;overflow=hidden;sketch=0;" parent="0gxv1SQT3VpTeHQqMCU--195" vertex="1">
          <mxGeometry x="30" width="298.95652173913066" height="30" as="geometry">
            <mxRectangle width="298.95652173913066" height="30" as="alternateBounds" />
          </mxGeometry>
        </mxCell>
        <mxCell id="0gxv1SQT3VpTeHQqMCU--198" style="shape=partialRectangle;connectable=0;fillColor=none;top=0;left=0;bottom=0;right=0;align=left;spacingLeft=6;overflow=hidden;sketch=0;" parent="0gxv1SQT3VpTeHQqMCU--195" vertex="1">
          <mxGeometry x="328.95652173913066" width="67.04347826086934" height="30" as="geometry">
            <mxRectangle width="67.04347826086934" height="30" as="alternateBounds" />
          </mxGeometry>
        </mxCell>
        <mxCell id="0gxv1SQT3VpTeHQqMCU--220" style="shape=tableRow;horizontal=0;startSize=0;swimlaneHead=0;swimlaneBody=0;fillColor=none;collapsible=0;dropTarget=0;points=[[0,0.5],[1,0.5]];portConstraint=eastwest;top=0;left=0;right=0;bottom=0;sketch=0;" parent="0gxv1SQT3VpTeHQqMCU--190" vertex="1">
          <mxGeometry y="120" width="396" height="30" as="geometry" />
        </mxCell>
        <mxCell id="0gxv1SQT3VpTeHQqMCU--221" style="shape=partialRectangle;connectable=0;fillColor=none;top=0;left=0;bottom=0;right=0;editable=1;overflow=hidden;sketch=0;" parent="0gxv1SQT3VpTeHQqMCU--220" vertex="1">
          <mxGeometry width="30" height="30" as="geometry">
            <mxRectangle width="30" height="30" as="alternateBounds" />
          </mxGeometry>
        </mxCell>
        <mxCell id="0gxv1SQT3VpTeHQqMCU--222" value="content text not null" style="shape=partialRectangle;connectable=0;fillColor=none;top=0;left=0;bottom=0;right=0;align=left;spacingLeft=6;overflow=hidden;sketch=0;" parent="0gxv1SQT3VpTeHQqMCU--220" vertex="1">
          <mxGeometry x="30" width="298.95652173913066" height="30" as="geometry">
            <mxRectangle width="298.95652173913066" height="30" as="alternateBounds" />
          </mxGeometry>
        </mxCell>
        <mxCell id="0gxv1SQT3VpTeHQqMCU--223" style="shape=partialRectangle;connectable=0;fillColor=none;top=0;left=0;bottom=0;right=0;align=left;spacingLeft=6;overflow=hidden;sketch=0;" parent="0gxv1SQT3VpTeHQqMCU--220" vertex="1">
          <mxGeometry x="328.95652173913066" width="67.04347826086934" height="30" as="geometry">
            <mxRectangle width="67.04347826086934" height="30" as="alternateBounds" />
          </mxGeometry>
        </mxCell>
        <mxCell id="0gxv1SQT3VpTeHQqMCU--199" value="" style="shape=tableRow;horizontal=0;startSize=0;swimlaneHead=0;swimlaneBody=0;fillColor=none;collapsible=0;dropTarget=0;points=[[0,0.5],[1,0.5]];portConstraint=eastwest;top=0;left=0;right=0;bottom=0;sketch=0;" parent="0gxv1SQT3VpTeHQqMCU--190" vertex="1">
          <mxGeometry y="150" width="396" height="29" as="geometry" />
        </mxCell>
        <mxCell id="0gxv1SQT3VpTeHQqMCU--200" value="" style="shape=partialRectangle;connectable=0;top=0;left=0;bottom=0;right=0;editable=1;overflow=hidden;sketch=0;" parent="0gxv1SQT3VpTeHQqMCU--199" vertex="1">
          <mxGeometry width="30" height="29" as="geometry">
            <mxRectangle width="30" height="29" as="alternateBounds" />
          </mxGeometry>
        </mxCell>
        <mxCell id="0gxv1SQT3VpTeHQqMCU--201" value="user_id varchar(36) not null" style="shape=partialRectangle;connectable=0;top=0;left=0;bottom=0;right=0;align=left;spacingLeft=6;overflow=hidden;sketch=0;" parent="0gxv1SQT3VpTeHQqMCU--199" vertex="1">
          <mxGeometry x="30" width="298.95652173913066" height="29" as="geometry">
            <mxRectangle width="298.95652173913066" height="29" as="alternateBounds" />
          </mxGeometry>
        </mxCell>
        <mxCell id="0gxv1SQT3VpTeHQqMCU--202" style="shape=partialRectangle;connectable=0;top=0;left=0;bottom=0;right=0;align=left;spacingLeft=6;overflow=hidden;sketch=0;" parent="0gxv1SQT3VpTeHQqMCU--199" vertex="1">
          <mxGeometry x="328.95652173913066" width="67.04347826086934" height="29" as="geometry">
            <mxRectangle width="67.04347826086934" height="29" as="alternateBounds" />
          </mxGeometry>
        </mxCell>
        <mxCell id="0gxv1SQT3VpTeHQqMCU--207" style="shape=tableRow;horizontal=0;startSize=0;swimlaneHead=0;swimlaneBody=0;fillColor=none;collapsible=0;dropTarget=0;points=[[0,0.5],[1,0.5]];portConstraint=eastwest;top=0;left=0;right=0;bottom=0;sketch=0;" parent="0gxv1SQT3VpTeHQqMCU--190" vertex="1">
          <mxGeometry y="179" width="396" height="30" as="geometry" />
        </mxCell>
        <mxCell id="0gxv1SQT3VpTeHQqMCU--208" style="shape=partialRectangle;connectable=0;fillColor=none;top=0;left=0;bottom=0;right=0;editable=1;overflow=hidden;sketch=0;" parent="0gxv1SQT3VpTeHQqMCU--207" vertex="1">
          <mxGeometry width="30" height="30" as="geometry">
            <mxRectangle width="30" height="30" as="alternateBounds" />
          </mxGeometry>
        </mxCell>
        <mxCell id="0gxv1SQT3VpTeHQqMCU--209" value="created_at datetime default CURRENT_TIMESTAMP" style="shape=partialRectangle;connectable=0;fillColor=none;top=0;left=0;bottom=0;right=0;align=left;spacingLeft=6;overflow=hidden;sketch=0;" parent="0gxv1SQT3VpTeHQqMCU--207" vertex="1">
          <mxGeometry x="30" width="298.95652173913066" height="30" as="geometry">
            <mxRectangle width="298.95652173913066" height="30" as="alternateBounds" />
          </mxGeometry>
        </mxCell>
        <mxCell id="0gxv1SQT3VpTeHQqMCU--210" style="shape=partialRectangle;connectable=0;fillColor=none;top=0;left=0;bottom=0;right=0;align=left;spacingLeft=6;overflow=hidden;sketch=0;" parent="0gxv1SQT3VpTeHQqMCU--207" vertex="1">
          <mxGeometry x="328.95652173913066" width="67.04347826086934" height="30" as="geometry">
            <mxRectangle width="67.04347826086934" height="30" as="alternateBounds" />
          </mxGeometry>
        </mxCell>
        <mxCell id="0gxv1SQT3VpTeHQqMCU--211" style="shape=tableRow;horizontal=0;startSize=0;swimlaneHead=0;swimlaneBody=0;fillColor=none;collapsible=0;dropTarget=0;points=[[0,0.5],[1,0.5]];portConstraint=eastwest;top=0;left=0;right=0;bottom=0;sketch=0;" parent="0gxv1SQT3VpTeHQqMCU--190" vertex="1">
          <mxGeometry y="209" width="396" height="30" as="geometry" />
        </mxCell>
        <mxCell id="0gxv1SQT3VpTeHQqMCU--212" style="shape=partialRectangle;connectable=0;fillColor=none;top=0;left=0;bottom=0;right=0;editable=1;overflow=hidden;sketch=0;" parent="0gxv1SQT3VpTeHQqMCU--211" vertex="1">
          <mxGeometry width="30" height="30" as="geometry">
            <mxRectangle width="30" height="30" as="alternateBounds" />
          </mxGeometry>
        </mxCell>
        <mxCell id="0gxv1SQT3VpTeHQqMCU--213" value="updated_at datetime" style="shape=partialRectangle;connectable=0;fillColor=none;top=0;left=0;bottom=0;right=0;align=left;spacingLeft=6;overflow=hidden;sketch=0;" parent="0gxv1SQT3VpTeHQqMCU--211" vertex="1">
          <mxGeometry x="30" width="298.95652173913066" height="30" as="geometry">
            <mxRectangle width="298.95652173913066" height="30" as="alternateBounds" />
          </mxGeometry>
        </mxCell>
        <mxCell id="0gxv1SQT3VpTeHQqMCU--214" style="shape=partialRectangle;connectable=0;fillColor=none;top=0;left=0;bottom=0;right=0;align=left;spacingLeft=6;overflow=hidden;sketch=0;" parent="0gxv1SQT3VpTeHQqMCU--211" vertex="1">
          <mxGeometry x="328.95652173913066" width="67.04347826086934" height="30" as="geometry">
            <mxRectangle width="67.04347826086934" height="30" as="alternateBounds" />
          </mxGeometry>
        </mxCell>
        <mxCell id="0gxv1SQT3VpTeHQqMCU--216" style="shape=tableRow;horizontal=0;startSize=0;swimlaneHead=0;swimlaneBody=0;fillColor=none;collapsible=0;dropTarget=0;points=[[0,0.5],[1,0.5]];portConstraint=eastwest;top=0;left=0;right=0;bottom=0;sketch=0;" parent="0gxv1SQT3VpTeHQqMCU--190" vertex="1">
          <mxGeometry y="239" width="396" height="30" as="geometry" />
        </mxCell>
        <mxCell id="0gxv1SQT3VpTeHQqMCU--217" style="shape=partialRectangle;connectable=0;fillColor=none;top=0;left=0;bottom=0;right=0;editable=1;overflow=hidden;sketch=0;" parent="0gxv1SQT3VpTeHQqMCU--216" vertex="1">
          <mxGeometry width="30" height="30" as="geometry">
            <mxRectangle width="30" height="30" as="alternateBounds" />
          </mxGeometry>
        </mxCell>
        <mxCell id="0gxv1SQT3VpTeHQqMCU--218" value="deleted_at datetime" style="shape=partialRectangle;connectable=0;fillColor=none;top=0;left=0;bottom=0;right=0;align=left;spacingLeft=6;overflow=hidden;sketch=0;" parent="0gxv1SQT3VpTeHQqMCU--216" vertex="1">
          <mxGeometry x="30" width="298.95652173913066" height="30" as="geometry">
            <mxRectangle width="298.95652173913066" height="30" as="alternateBounds" />
          </mxGeometry>
        </mxCell>
        <mxCell id="0gxv1SQT3VpTeHQqMCU--219" style="shape=partialRectangle;connectable=0;fillColor=none;top=0;left=0;bottom=0;right=0;align=left;spacingLeft=6;overflow=hidden;sketch=0;" parent="0gxv1SQT3VpTeHQqMCU--216" vertex="1">
          <mxGeometry x="328.95652173913066" width="67.04347826086934" height="30" as="geometry">
            <mxRectangle width="67.04347826086934" height="30" as="alternateBounds" />
          </mxGeometry>
        </mxCell>
        <mxCell id="0gxv1SQT3VpTeHQqMCU--215" style="edgeStyle=orthogonalEdgeStyle;rounded=0;sketch=0;orthogonalLoop=1;jettySize=auto;html=1;exitX=0;exitY=0.5;exitDx=0;exitDy=0;entryX=1;entryY=0.5;entryDx=0;entryDy=0;fontFamily=Helvetica;fontSize=14;fontColor=default;startSize=30;" parent="1" source="0gxv1SQT3VpTeHQqMCU--203" target="0gxv1SQT3VpTeHQqMCU--75" edge="1">
          <mxGeometry relative="1" as="geometry" />
        </mxCell>
        <mxCell id="0gxv1SQT3VpTeHQqMCU--224" value="상품" style="rounded=0;whiteSpace=wrap;html=1;shadow=0;dashed=1;sketch=0;fontFamily=Helvetica;fontSize=14;fontColor=default;startSize=30;strokeColor=#000000;fillColor=#9999FF;gradientColor=none;" parent="1" vertex="1">
          <mxGeometry x="-849" y="726" width="120" height="60" as="geometry" />
        </mxCell>
        <mxCell id="0gxv1SQT3VpTeHQqMCU--226" value="order [주문]" style="shape=table;startSize=30;container=1;collapsible=1;childLayout=tableLayout;fixedRows=1;rowLines=1;fontStyle=1;align=center;resizeLast=1;sketch=0;fontSize=14;gradientColor=none;swimlaneFillColor=none;rounded=0;shadow=0;resizeLastRow=1;autosize=0;" parent="1" vertex="1">
          <mxGeometry x="304" y="122" width="421" height="293.2851724137933" as="geometry" />
        </mxCell>
        <mxCell id="0gxv1SQT3VpTeHQqMCU--227" value="" style="shape=tableRow;horizontal=0;startSize=0;swimlaneHead=0;swimlaneBody=0;fillColor=none;collapsible=0;dropTarget=0;points=[[0,0.5],[1,0.5]];portConstraint=eastwest;top=0;left=0;right=0;bottom=1;sketch=0;" parent="0gxv1SQT3VpTeHQqMCU--226" vertex="1">
          <mxGeometry y="30" width="421" height="30" as="geometry" />
        </mxCell>
        <mxCell id="0gxv1SQT3VpTeHQqMCU--228" value="PK" style="shape=partialRectangle;connectable=0;fillColor=#fff2cc;top=0;left=0;bottom=0;right=0;fontStyle=1;overflow=hidden;sketch=0;strokeColor=#d6b656;" parent="0gxv1SQT3VpTeHQqMCU--227" vertex="1">
          <mxGeometry width="30" height="30" as="geometry">
            <mxRectangle width="30" height="30" as="alternateBounds" />
          </mxGeometry>
        </mxCell>
        <mxCell id="0gxv1SQT3VpTeHQqMCU--229" value="id bigint auto increment" style="shape=partialRectangle;connectable=0;fillColor=#fff2cc;top=0;left=0;bottom=0;right=0;align=left;spacingLeft=6;fontStyle=1;overflow=hidden;sketch=0;strokeColor=#d6b656;" parent="0gxv1SQT3VpTeHQqMCU--227" vertex="1">
          <mxGeometry x="30" width="313" height="30" as="geometry">
            <mxRectangle width="313" height="30" as="alternateBounds" />
          </mxGeometry>
        </mxCell>
        <mxCell id="0gxv1SQT3VpTeHQqMCU--230" style="shape=partialRectangle;connectable=0;fillColor=#fff2cc;top=0;left=0;bottom=0;right=0;align=left;spacingLeft=6;fontStyle=1;overflow=hidden;sketch=0;strokeColor=#d6b656;" parent="0gxv1SQT3VpTeHQqMCU--227" vertex="1">
          <mxGeometry x="343" width="78" height="30" as="geometry">
            <mxRectangle width="78" height="30" as="alternateBounds" />
          </mxGeometry>
        </mxCell>
        <mxCell id="0gxv1SQT3VpTeHQqMCU--231" value="" style="shape=tableRow;horizontal=0;startSize=0;swimlaneHead=0;swimlaneBody=0;fillColor=none;collapsible=0;dropTarget=0;points=[[0,0.5],[1,0.5]];portConstraint=eastwest;top=0;left=0;right=0;bottom=0;sketch=0;" parent="0gxv1SQT3VpTeHQqMCU--226" vertex="1">
          <mxGeometry y="60" width="421" height="30" as="geometry" />
        </mxCell>
        <mxCell id="0gxv1SQT3VpTeHQqMCU--232" value="" style="shape=partialRectangle;connectable=0;top=0;left=0;bottom=0;right=0;editable=1;overflow=hidden;sketch=0;" parent="0gxv1SQT3VpTeHQqMCU--231" vertex="1">
          <mxGeometry width="30" height="30" as="geometry">
            <mxRectangle width="30" height="30" as="alternateBounds" />
          </mxGeometry>
        </mxCell>
        <mxCell id="0gxv1SQT3VpTeHQqMCU--233" value="user_id varchar(36) not null" style="shape=partialRectangle;connectable=0;top=0;left=0;bottom=0;right=0;align=left;spacingLeft=6;overflow=hidden;sketch=0;" parent="0gxv1SQT3VpTeHQqMCU--231" vertex="1">
          <mxGeometry x="30" width="313" height="30" as="geometry">
            <mxRectangle width="313" height="30" as="alternateBounds" />
          </mxGeometry>
        </mxCell>
        <mxCell id="0gxv1SQT3VpTeHQqMCU--234" style="shape=partialRectangle;connectable=0;top=0;left=0;bottom=0;right=0;align=left;spacingLeft=6;overflow=hidden;sketch=0;" parent="0gxv1SQT3VpTeHQqMCU--231" vertex="1">
          <mxGeometry x="343" width="78" height="30" as="geometry">
            <mxRectangle width="78" height="30" as="alternateBounds" />
          </mxGeometry>
        </mxCell>
        <mxCell id="0gxv1SQT3VpTeHQqMCU--259" style="shape=tableRow;horizontal=0;startSize=0;swimlaneHead=0;swimlaneBody=0;fillColor=none;collapsible=0;dropTarget=0;points=[[0,0.5],[1,0.5]];portConstraint=eastwest;top=0;left=0;right=0;bottom=0;sketch=0;" parent="0gxv1SQT3VpTeHQqMCU--226" vertex="1">
          <mxGeometry y="90" width="421" height="90" as="geometry" />
        </mxCell>
        <mxCell id="0gxv1SQT3VpTeHQqMCU--260" style="shape=partialRectangle;connectable=0;fillColor=none;top=0;left=0;bottom=0;right=0;editable=1;overflow=hidden;sketch=0;" parent="0gxv1SQT3VpTeHQqMCU--259" vertex="1">
          <mxGeometry width="30" height="90" as="geometry">
            <mxRectangle width="30" height="90" as="alternateBounds" />
          </mxGeometry>
        </mxCell>
        <mxCell id="0gxv1SQT3VpTeHQqMCU--261" value="status varchar(16) not null" style="shape=partialRectangle;connectable=0;fillColor=none;top=0;left=0;bottom=0;right=0;align=left;spacingLeft=6;overflow=hidden;sketch=0;" parent="0gxv1SQT3VpTeHQqMCU--259" vertex="1">
          <mxGeometry x="30" width="313" height="90" as="geometry">
            <mxRectangle width="313" height="90" as="alternateBounds" />
          </mxGeometry>
        </mxCell>
        <mxCell id="0gxv1SQT3VpTeHQqMCU--262" value="주문 상태&#xa;- 결제 대기&#xa;- 결제 완료&#xa;- 배송 준비중&#xa;- 배송 중&#xa;- 배송 완료" style="shape=partialRectangle;connectable=0;fillColor=none;top=0;left=0;bottom=0;right=0;align=left;spacingLeft=6;overflow=hidden;sketch=0;" parent="0gxv1SQT3VpTeHQqMCU--259" vertex="1">
          <mxGeometry x="343" width="78" height="90" as="geometry">
            <mxRectangle width="78" height="90" as="alternateBounds" />
          </mxGeometry>
        </mxCell>
        <mxCell id="0gxv1SQT3VpTeHQqMCU--263" style="shape=tableRow;horizontal=0;startSize=0;swimlaneHead=0;swimlaneBody=0;fillColor=none;collapsible=0;dropTarget=0;points=[[0,0.5],[1,0.5]];portConstraint=eastwest;top=0;left=0;right=0;bottom=0;sketch=0;" parent="0gxv1SQT3VpTeHQqMCU--226" vertex="1">
          <mxGeometry y="180" width="421" height="30" as="geometry" />
        </mxCell>
        <mxCell id="0gxv1SQT3VpTeHQqMCU--264" style="shape=partialRectangle;connectable=0;fillColor=none;top=0;left=0;bottom=0;right=0;editable=1;overflow=hidden;sketch=0;" parent="0gxv1SQT3VpTeHQqMCU--263" vertex="1">
          <mxGeometry width="30" height="30" as="geometry">
            <mxRectangle width="30" height="30" as="alternateBounds" />
          </mxGeometry>
        </mxCell>
        <mxCell id="0gxv1SQT3VpTeHQqMCU--265" value="address varchar(255) not null" style="shape=partialRectangle;connectable=0;fillColor=none;top=0;left=0;bottom=0;right=0;align=left;spacingLeft=6;overflow=hidden;sketch=0;" parent="0gxv1SQT3VpTeHQqMCU--263" vertex="1">
          <mxGeometry x="30" width="313" height="30" as="geometry">
            <mxRectangle width="313" height="30" as="alternateBounds" />
          </mxGeometry>
        </mxCell>
        <mxCell id="0gxv1SQT3VpTeHQqMCU--266" style="shape=partialRectangle;connectable=0;fillColor=none;top=0;left=0;bottom=0;right=0;align=left;spacingLeft=6;overflow=hidden;sketch=0;" parent="0gxv1SQT3VpTeHQqMCU--263" vertex="1">
          <mxGeometry x="343" width="78" height="30" as="geometry">
            <mxRectangle width="78" height="30" as="alternateBounds" />
          </mxGeometry>
        </mxCell>
        <mxCell id="0gxv1SQT3VpTeHQqMCU--267" style="shape=tableRow;horizontal=0;startSize=0;swimlaneHead=0;swimlaneBody=0;fillColor=none;collapsible=0;dropTarget=0;points=[[0,0.5],[1,0.5]];portConstraint=eastwest;top=0;left=0;right=0;bottom=0;sketch=0;" parent="0gxv1SQT3VpTeHQqMCU--226" vertex="1">
          <mxGeometry y="210" width="421" height="27" as="geometry" />
        </mxCell>
        <mxCell id="0gxv1SQT3VpTeHQqMCU--268" value="FK" style="shape=partialRectangle;connectable=0;fillColor=#f5f5f5;top=0;left=0;bottom=0;right=0;editable=1;overflow=hidden;sketch=0;fontColor=#333333;strokeColor=#666666;" parent="0gxv1SQT3VpTeHQqMCU--267" vertex="1">
          <mxGeometry width="30" height="27" as="geometry">
            <mxRectangle width="30" height="27" as="alternateBounds" />
          </mxGeometry>
        </mxCell>
        <mxCell id="0gxv1SQT3VpTeHQqMCU--269" value="payment_id bigint not null" style="shape=partialRectangle;connectable=0;fillColor=#f5f5f5;top=0;left=0;bottom=0;right=0;align=left;spacingLeft=6;overflow=hidden;sketch=0;fontColor=#333333;strokeColor=#666666;" parent="0gxv1SQT3VpTeHQqMCU--267" vertex="1">
          <mxGeometry x="30" width="313" height="27" as="geometry">
            <mxRectangle width="313" height="27" as="alternateBounds" />
          </mxGeometry>
        </mxCell>
        <mxCell id="0gxv1SQT3VpTeHQqMCU--270" style="shape=partialRectangle;connectable=0;fillColor=#f5f5f5;top=0;left=0;bottom=0;right=0;align=left;spacingLeft=6;overflow=hidden;sketch=0;fontColor=#333333;strokeColor=#666666;" parent="0gxv1SQT3VpTeHQqMCU--267" vertex="1">
          <mxGeometry x="343" width="78" height="27" as="geometry">
            <mxRectangle width="78" height="27" as="alternateBounds" />
          </mxGeometry>
        </mxCell>
        <mxCell id="0gxv1SQT3VpTeHQqMCU--271" style="shape=tableRow;horizontal=0;startSize=0;swimlaneHead=0;swimlaneBody=0;fillColor=none;collapsible=0;dropTarget=0;points=[[0,0.5],[1,0.5]];portConstraint=eastwest;top=0;left=0;right=0;bottom=0;sketch=0;" parent="0gxv1SQT3VpTeHQqMCU--226" vertex="1">
          <mxGeometry y="237" width="421" height="26" as="geometry" />
        </mxCell>
        <mxCell id="0gxv1SQT3VpTeHQqMCU--272" style="shape=partialRectangle;connectable=0;fillColor=none;top=0;left=0;bottom=0;right=0;editable=1;overflow=hidden;sketch=0;" parent="0gxv1SQT3VpTeHQqMCU--271" vertex="1">
          <mxGeometry width="30" height="26" as="geometry">
            <mxRectangle width="30" height="26" as="alternateBounds" />
          </mxGeometry>
        </mxCell>
        <mxCell id="0gxv1SQT3VpTeHQqMCU--273" value="invoice_num varchar(64) not null" style="shape=partialRectangle;connectable=0;fillColor=none;top=0;left=0;bottom=0;right=0;align=left;spacingLeft=6;overflow=hidden;sketch=0;" parent="0gxv1SQT3VpTeHQqMCU--271" vertex="1">
          <mxGeometry x="30" width="313" height="26" as="geometry">
            <mxRectangle width="313" height="26" as="alternateBounds" />
          </mxGeometry>
        </mxCell>
        <mxCell id="0gxv1SQT3VpTeHQqMCU--274" value="송장번호" style="shape=partialRectangle;connectable=0;fillColor=none;top=0;left=0;bottom=0;right=0;align=left;spacingLeft=6;overflow=hidden;sketch=0;" parent="0gxv1SQT3VpTeHQqMCU--271" vertex="1">
          <mxGeometry x="343" width="78" height="26" as="geometry">
            <mxRectangle width="78" height="26" as="alternateBounds" />
          </mxGeometry>
        </mxCell>
        <mxCell id="0gxv1SQT3VpTeHQqMCU--239" value="" style="shape=tableRow;horizontal=0;startSize=0;swimlaneHead=0;swimlaneBody=0;fillColor=none;collapsible=0;dropTarget=0;points=[[0,0.5],[1,0.5]];portConstraint=eastwest;top=0;left=0;right=0;bottom=0;sketch=0;" parent="0gxv1SQT3VpTeHQqMCU--226" vertex="1">
          <mxGeometry y="263" width="421" height="30" as="geometry" />
        </mxCell>
        <mxCell id="0gxv1SQT3VpTeHQqMCU--240" value="" style="shape=partialRectangle;connectable=0;fillColor=none;top=0;left=0;bottom=0;right=0;editable=1;overflow=hidden;sketch=0;" parent="0gxv1SQT3VpTeHQqMCU--239" vertex="1">
          <mxGeometry width="30" height="30" as="geometry">
            <mxRectangle width="30" height="30" as="alternateBounds" />
          </mxGeometry>
        </mxCell>
        <mxCell id="0gxv1SQT3VpTeHQqMCU--241" value="created_at datetime default CURRENT_TIMESTAMP" style="shape=partialRectangle;connectable=0;fillColor=none;top=0;left=0;bottom=0;right=0;align=left;spacingLeft=6;overflow=hidden;sketch=0;" parent="0gxv1SQT3VpTeHQqMCU--239" vertex="1">
          <mxGeometry x="30" width="313" height="30" as="geometry">
            <mxRectangle width="313" height="30" as="alternateBounds" />
          </mxGeometry>
        </mxCell>
        <mxCell id="0gxv1SQT3VpTeHQqMCU--242" style="shape=partialRectangle;connectable=0;fillColor=none;top=0;left=0;bottom=0;right=0;align=left;spacingLeft=6;overflow=hidden;sketch=0;" parent="0gxv1SQT3VpTeHQqMCU--239" vertex="1">
          <mxGeometry x="343" width="78" height="30" as="geometry">
            <mxRectangle width="78" height="30" as="alternateBounds" />
          </mxGeometry>
        </mxCell>
        <mxCell id="0gxv1SQT3VpTeHQqMCU--275" value="cart_item [장바구니 상품 매핑]" style="shape=table;startSize=30;container=1;collapsible=1;childLayout=tableLayout;fixedRows=1;rowLines=1;fontStyle=1;align=center;resizeLast=1;sketch=0;fontSize=14;gradientColor=none;swimlaneFillColor=none;rounded=0;shadow=0;resizeLastRow=1;autosize=0;" parent="1" vertex="1">
          <mxGeometry x="-222" y="405" width="421" height="243.3923152709363" as="geometry" />
        </mxCell>
        <mxCell id="0gxv1SQT3VpTeHQqMCU--276" value="" style="shape=tableRow;horizontal=0;startSize=0;swimlaneHead=0;swimlaneBody=0;fillColor=none;collapsible=0;dropTarget=0;points=[[0,0.5],[1,0.5]];portConstraint=eastwest;top=0;left=0;right=0;bottom=1;sketch=0;" parent="0gxv1SQT3VpTeHQqMCU--275" vertex="1">
          <mxGeometry y="30" width="421" height="33" as="geometry" />
        </mxCell>
        <mxCell id="0gxv1SQT3VpTeHQqMCU--277" value="PK" style="shape=partialRectangle;connectable=0;fillColor=#fff2cc;top=0;left=0;bottom=0;right=0;fontStyle=1;overflow=hidden;sketch=0;strokeColor=#d6b656;" parent="0gxv1SQT3VpTeHQqMCU--276" vertex="1">
          <mxGeometry width="30" height="33" as="geometry">
            <mxRectangle width="30" height="33" as="alternateBounds" />
          </mxGeometry>
        </mxCell>
        <mxCell id="0gxv1SQT3VpTeHQqMCU--278" value="id bigint auto increment" style="shape=partialRectangle;connectable=0;fillColor=#fff2cc;top=0;left=0;bottom=0;right=0;align=left;spacingLeft=6;fontStyle=1;overflow=hidden;sketch=0;strokeColor=#d6b656;" parent="0gxv1SQT3VpTeHQqMCU--276" vertex="1">
          <mxGeometry x="30" width="313" height="33" as="geometry">
            <mxRectangle width="313" height="33" as="alternateBounds" />
          </mxGeometry>
        </mxCell>
        <mxCell id="0gxv1SQT3VpTeHQqMCU--279" style="shape=partialRectangle;connectable=0;fillColor=#fff2cc;top=0;left=0;bottom=0;right=0;align=left;spacingLeft=6;fontStyle=1;overflow=hidden;sketch=0;strokeColor=#d6b656;" parent="0gxv1SQT3VpTeHQqMCU--276" vertex="1">
          <mxGeometry x="343" width="78" height="33" as="geometry">
            <mxRectangle width="78" height="33" as="alternateBounds" />
          </mxGeometry>
        </mxCell>
        <mxCell id="0gxv1SQT3VpTeHQqMCU--280" value="" style="shape=tableRow;horizontal=0;startSize=0;swimlaneHead=0;swimlaneBody=0;fillColor=none;collapsible=0;dropTarget=0;points=[[0,0.5],[1,0.5]];portConstraint=eastwest;top=0;left=0;right=0;bottom=0;sketch=0;" parent="0gxv1SQT3VpTeHQqMCU--275" vertex="1">
          <mxGeometry y="63" width="421" height="31" as="geometry" />
        </mxCell>
        <mxCell id="0gxv1SQT3VpTeHQqMCU--281" value="" style="shape=partialRectangle;connectable=0;top=0;left=0;bottom=0;right=0;editable=1;overflow=hidden;sketch=0;fillColor=#f5f5f5;fontColor=#333333;strokeColor=#666666;" parent="0gxv1SQT3VpTeHQqMCU--280" vertex="1">
          <mxGeometry width="30" height="31" as="geometry">
            <mxRectangle width="30" height="31" as="alternateBounds" />
          </mxGeometry>
        </mxCell>
        <mxCell id="0gxv1SQT3VpTeHQqMCU--282" value="cart_id bigint not null" style="shape=partialRectangle;connectable=0;top=0;left=0;bottom=0;right=0;align=left;spacingLeft=6;overflow=hidden;sketch=0;fillColor=#f5f5f5;fontColor=#333333;strokeColor=#666666;" parent="0gxv1SQT3VpTeHQqMCU--280" vertex="1">
          <mxGeometry x="30" width="313" height="31" as="geometry">
            <mxRectangle width="313" height="31" as="alternateBounds" />
          </mxGeometry>
        </mxCell>
        <mxCell id="0gxv1SQT3VpTeHQqMCU--283" style="shape=partialRectangle;connectable=0;top=0;left=0;bottom=0;right=0;align=left;spacingLeft=6;overflow=hidden;sketch=0;fillColor=#f5f5f5;fontColor=#333333;strokeColor=#666666;" parent="0gxv1SQT3VpTeHQqMCU--280" vertex="1">
          <mxGeometry x="343" width="78" height="31" as="geometry">
            <mxRectangle width="78" height="31" as="alternateBounds" />
          </mxGeometry>
        </mxCell>
        <mxCell id="0gxv1SQT3VpTeHQqMCU--284" value="" style="shape=tableRow;horizontal=0;startSize=0;swimlaneHead=0;swimlaneBody=0;fillColor=none;collapsible=0;dropTarget=0;points=[[0,0.5],[1,0.5]];portConstraint=eastwest;top=0;left=0;right=0;bottom=0;sketch=0;" parent="0gxv1SQT3VpTeHQqMCU--275" vertex="1">
          <mxGeometry y="94" width="421" height="30" as="geometry" />
        </mxCell>
        <mxCell id="0gxv1SQT3VpTeHQqMCU--285" value="" style="shape=partialRectangle;connectable=0;fillColor=none;top=0;left=0;bottom=0;right=0;editable=1;overflow=hidden;sketch=0;" parent="0gxv1SQT3VpTeHQqMCU--284" vertex="1">
          <mxGeometry width="30" height="30" as="geometry">
            <mxRectangle width="30" height="30" as="alternateBounds" />
          </mxGeometry>
        </mxCell>
        <mxCell id="0gxv1SQT3VpTeHQqMCU--286" value="item_id bigint not null" style="shape=partialRectangle;connectable=0;fillColor=none;top=0;left=0;bottom=0;right=0;align=left;spacingLeft=6;overflow=hidden;sketch=0;" parent="0gxv1SQT3VpTeHQqMCU--284" vertex="1">
          <mxGeometry x="30" width="313" height="30" as="geometry">
            <mxRectangle width="313" height="30" as="alternateBounds" />
          </mxGeometry>
        </mxCell>
        <mxCell id="0gxv1SQT3VpTeHQqMCU--287" style="shape=partialRectangle;connectable=0;fillColor=none;top=0;left=0;bottom=0;right=0;align=left;spacingLeft=6;overflow=hidden;sketch=0;" parent="0gxv1SQT3VpTeHQqMCU--284" vertex="1">
          <mxGeometry x="343" width="78" height="30" as="geometry">
            <mxRectangle width="78" height="30" as="alternateBounds" />
          </mxGeometry>
        </mxCell>
        <mxCell id="0gxv1SQT3VpTeHQqMCU--296" style="shape=tableRow;horizontal=0;startSize=0;swimlaneHead=0;swimlaneBody=0;fillColor=none;collapsible=0;dropTarget=0;points=[[0,0.5],[1,0.5]];portConstraint=eastwest;top=0;left=0;right=0;bottom=0;sketch=0;" parent="0gxv1SQT3VpTeHQqMCU--275" vertex="1">
          <mxGeometry y="124" width="421" height="30" as="geometry" />
        </mxCell>
        <mxCell id="0gxv1SQT3VpTeHQqMCU--297" style="shape=partialRectangle;connectable=0;fillColor=none;top=0;left=0;bottom=0;right=0;editable=1;overflow=hidden;sketch=0;" parent="0gxv1SQT3VpTeHQqMCU--296" vertex="1">
          <mxGeometry width="30" height="30" as="geometry">
            <mxRectangle width="30" height="30" as="alternateBounds" />
          </mxGeometry>
        </mxCell>
        <mxCell id="0gxv1SQT3VpTeHQqMCU--298" value="amount int not null" style="shape=partialRectangle;connectable=0;fillColor=none;top=0;left=0;bottom=0;right=0;align=left;spacingLeft=6;overflow=hidden;sketch=0;" parent="0gxv1SQT3VpTeHQqMCU--296" vertex="1">
          <mxGeometry x="30" width="313" height="30" as="geometry">
            <mxRectangle width="313" height="30" as="alternateBounds" />
          </mxGeometry>
        </mxCell>
        <mxCell id="0gxv1SQT3VpTeHQqMCU--299" style="shape=partialRectangle;connectable=0;fillColor=none;top=0;left=0;bottom=0;right=0;align=left;spacingLeft=6;overflow=hidden;sketch=0;" parent="0gxv1SQT3VpTeHQqMCU--296" vertex="1">
          <mxGeometry x="343" width="78" height="30" as="geometry">
            <mxRectangle width="78" height="30" as="alternateBounds" />
          </mxGeometry>
        </mxCell>
        <mxCell id="0gxv1SQT3VpTeHQqMCU--288" style="shape=tableRow;horizontal=0;startSize=0;swimlaneHead=0;swimlaneBody=0;fillColor=none;collapsible=0;dropTarget=0;points=[[0,0.5],[1,0.5]];portConstraint=eastwest;top=0;left=0;right=0;bottom=0;sketch=0;" parent="0gxv1SQT3VpTeHQqMCU--275" vertex="1">
          <mxGeometry y="154" width="421" height="30" as="geometry" />
        </mxCell>
        <mxCell id="0gxv1SQT3VpTeHQqMCU--289" style="shape=partialRectangle;connectable=0;fillColor=none;top=0;left=0;bottom=0;right=0;editable=1;overflow=hidden;sketch=0;" parent="0gxv1SQT3VpTeHQqMCU--288" vertex="1">
          <mxGeometry width="30" height="30" as="geometry">
            <mxRectangle width="30" height="30" as="alternateBounds" />
          </mxGeometry>
        </mxCell>
        <mxCell id="0gxv1SQT3VpTeHQqMCU--290" value="created_at datetime default CURRENT_TIMESTAMP" style="shape=partialRectangle;connectable=0;fillColor=none;top=0;left=0;bottom=0;right=0;align=left;spacingLeft=6;overflow=hidden;sketch=0;" parent="0gxv1SQT3VpTeHQqMCU--288" vertex="1">
          <mxGeometry x="30" width="313" height="30" as="geometry">
            <mxRectangle width="313" height="30" as="alternateBounds" />
          </mxGeometry>
        </mxCell>
        <mxCell id="0gxv1SQT3VpTeHQqMCU--291" style="shape=partialRectangle;connectable=0;fillColor=none;top=0;left=0;bottom=0;right=0;align=left;spacingLeft=6;overflow=hidden;sketch=0;" parent="0gxv1SQT3VpTeHQqMCU--288" vertex="1">
          <mxGeometry x="343" width="78" height="30" as="geometry">
            <mxRectangle width="78" height="30" as="alternateBounds" />
          </mxGeometry>
        </mxCell>
        <mxCell id="0gxv1SQT3VpTeHQqMCU--326" style="shape=tableRow;horizontal=0;startSize=0;swimlaneHead=0;swimlaneBody=0;fillColor=none;collapsible=0;dropTarget=0;points=[[0,0.5],[1,0.5]];portConstraint=eastwest;top=0;left=0;right=0;bottom=0;sketch=0;" parent="0gxv1SQT3VpTeHQqMCU--275" vertex="1">
          <mxGeometry y="184" width="421" height="30" as="geometry" />
        </mxCell>
        <mxCell id="0gxv1SQT3VpTeHQqMCU--327" style="shape=partialRectangle;connectable=0;fillColor=none;top=0;left=0;bottom=0;right=0;editable=1;overflow=hidden;sketch=0;" parent="0gxv1SQT3VpTeHQqMCU--326" vertex="1">
          <mxGeometry width="30" height="30" as="geometry">
            <mxRectangle width="30" height="30" as="alternateBounds" />
          </mxGeometry>
        </mxCell>
        <mxCell id="0gxv1SQT3VpTeHQqMCU--328" value="updated_at datetime" style="shape=partialRectangle;connectable=0;fillColor=none;top=0;left=0;bottom=0;right=0;align=left;spacingLeft=6;overflow=hidden;sketch=0;" parent="0gxv1SQT3VpTeHQqMCU--326" vertex="1">
          <mxGeometry x="30" width="313" height="30" as="geometry">
            <mxRectangle width="313" height="30" as="alternateBounds" />
          </mxGeometry>
        </mxCell>
        <mxCell id="0gxv1SQT3VpTeHQqMCU--329" style="shape=partialRectangle;connectable=0;fillColor=none;top=0;left=0;bottom=0;right=0;align=left;spacingLeft=6;overflow=hidden;sketch=0;" parent="0gxv1SQT3VpTeHQqMCU--326" vertex="1">
          <mxGeometry x="343" width="78" height="30" as="geometry">
            <mxRectangle width="78" height="30" as="alternateBounds" />
          </mxGeometry>
        </mxCell>
        <mxCell id="0gxv1SQT3VpTeHQqMCU--292" style="shape=tableRow;horizontal=0;startSize=0;swimlaneHead=0;swimlaneBody=0;fillColor=none;collapsible=0;dropTarget=0;points=[[0,0.5],[1,0.5]];portConstraint=eastwest;top=0;left=0;right=0;bottom=0;sketch=0;" parent="0gxv1SQT3VpTeHQqMCU--275" vertex="1">
          <mxGeometry y="214" width="421" height="29" as="geometry" />
        </mxCell>
        <mxCell id="0gxv1SQT3VpTeHQqMCU--293" style="shape=partialRectangle;connectable=0;fillColor=none;top=0;left=0;bottom=0;right=0;editable=1;overflow=hidden;sketch=0;" parent="0gxv1SQT3VpTeHQqMCU--292" vertex="1">
          <mxGeometry width="30" height="29" as="geometry">
            <mxRectangle width="30" height="29" as="alternateBounds" />
          </mxGeometry>
        </mxCell>
        <mxCell id="0gxv1SQT3VpTeHQqMCU--294" value="deleted_at datetime" style="shape=partialRectangle;connectable=0;fillColor=none;top=0;left=0;bottom=0;right=0;align=left;spacingLeft=6;overflow=hidden;sketch=0;" parent="0gxv1SQT3VpTeHQqMCU--292" vertex="1">
          <mxGeometry x="30" width="313" height="29" as="geometry">
            <mxRectangle width="313" height="29" as="alternateBounds" />
          </mxGeometry>
        </mxCell>
        <mxCell id="0gxv1SQT3VpTeHQqMCU--295" style="shape=partialRectangle;connectable=0;fillColor=none;top=0;left=0;bottom=0;right=0;align=left;spacingLeft=6;overflow=hidden;sketch=0;" parent="0gxv1SQT3VpTeHQqMCU--292" vertex="1">
          <mxGeometry x="343" width="78" height="29" as="geometry">
            <mxRectangle width="78" height="29" as="alternateBounds" />
          </mxGeometry>
        </mxCell>
        <mxCell id="0gxv1SQT3VpTeHQqMCU--300" style="edgeStyle=orthogonalEdgeStyle;rounded=0;sketch=0;orthogonalLoop=1;jettySize=auto;html=1;exitX=0;exitY=0.5;exitDx=0;exitDy=0;entryX=0;entryY=0.5;entryDx=0;entryDy=0;fontFamily=Helvetica;fontSize=14;fontColor=default;startSize=30;" parent="1" source="0gxv1SQT3VpTeHQqMCU--280" target="0gxv1SQT3VpTeHQqMCU--38" edge="1">
          <mxGeometry relative="1" as="geometry">
            <Array as="points">
              <mxPoint x="-252" y="484" />
              <mxPoint x="-252" y="233" />
            </Array>
          </mxGeometry>
        </mxCell>
        <mxCell id="0gxv1SQT3VpTeHQqMCU--301" value="order_item [주문 상품 매핑]" style="shape=table;startSize=29;container=1;collapsible=1;childLayout=tableLayout;fixedRows=1;rowLines=1;fontStyle=1;align=center;resizeLast=1;sketch=0;fontSize=14;gradientColor=none;swimlaneFillColor=none;rounded=0;shadow=0;resizeLastRow=1;autosize=0;" parent="1" vertex="1">
          <mxGeometry x="304" y="458" width="421" height="214.77285714285733" as="geometry" />
        </mxCell>
        <mxCell id="0gxv1SQT3VpTeHQqMCU--302" value="" style="shape=tableRow;horizontal=0;startSize=0;swimlaneHead=0;swimlaneBody=0;fillColor=none;collapsible=0;dropTarget=0;points=[[0,0.5],[1,0.5]];portConstraint=eastwest;top=0;left=0;right=0;bottom=1;sketch=0;" parent="0gxv1SQT3VpTeHQqMCU--301" vertex="1">
          <mxGeometry y="29" width="421" height="33" as="geometry" />
        </mxCell>
        <mxCell id="0gxv1SQT3VpTeHQqMCU--303" value="PK" style="shape=partialRectangle;connectable=0;fillColor=#fff2cc;top=0;left=0;bottom=0;right=0;fontStyle=1;overflow=hidden;sketch=0;strokeColor=#d6b656;" parent="0gxv1SQT3VpTeHQqMCU--302" vertex="1">
          <mxGeometry width="30" height="33" as="geometry">
            <mxRectangle width="30" height="33" as="alternateBounds" />
          </mxGeometry>
        </mxCell>
        <mxCell id="0gxv1SQT3VpTeHQqMCU--304" value="id bigint auto increment" style="shape=partialRectangle;connectable=0;fillColor=#fff2cc;top=0;left=0;bottom=0;right=0;align=left;spacingLeft=6;fontStyle=1;overflow=hidden;sketch=0;strokeColor=#d6b656;" parent="0gxv1SQT3VpTeHQqMCU--302" vertex="1">
          <mxGeometry x="30" width="313" height="33" as="geometry">
            <mxRectangle width="313" height="33" as="alternateBounds" />
          </mxGeometry>
        </mxCell>
        <mxCell id="0gxv1SQT3VpTeHQqMCU--305" style="shape=partialRectangle;connectable=0;fillColor=#fff2cc;top=0;left=0;bottom=0;right=0;align=left;spacingLeft=6;fontStyle=1;overflow=hidden;sketch=0;strokeColor=#d6b656;" parent="0gxv1SQT3VpTeHQqMCU--302" vertex="1">
          <mxGeometry x="343" width="78" height="33" as="geometry">
            <mxRectangle width="78" height="33" as="alternateBounds" />
          </mxGeometry>
        </mxCell>
        <mxCell id="0gxv1SQT3VpTeHQqMCU--306" value="" style="shape=tableRow;horizontal=0;startSize=0;swimlaneHead=0;swimlaneBody=0;fillColor=none;collapsible=0;dropTarget=0;points=[[0,0.5],[1,0.5]];portConstraint=eastwest;top=0;left=0;right=0;bottom=0;sketch=0;" parent="0gxv1SQT3VpTeHQqMCU--301" vertex="1">
          <mxGeometry y="62" width="421" height="31" as="geometry" />
        </mxCell>
        <mxCell id="0gxv1SQT3VpTeHQqMCU--307" value="" style="shape=partialRectangle;connectable=0;top=0;left=0;bottom=0;right=0;editable=1;overflow=hidden;sketch=0;fillColor=#f5f5f5;fontColor=#333333;strokeColor=#666666;" parent="0gxv1SQT3VpTeHQqMCU--306" vertex="1">
          <mxGeometry width="30" height="31" as="geometry">
            <mxRectangle width="30" height="31" as="alternateBounds" />
          </mxGeometry>
        </mxCell>
        <mxCell id="0gxv1SQT3VpTeHQqMCU--308" value="order_id bigint not null" style="shape=partialRectangle;connectable=0;top=0;left=0;bottom=0;right=0;align=left;spacingLeft=6;overflow=hidden;sketch=0;fillColor=#f5f5f5;fontColor=#333333;strokeColor=#666666;" parent="0gxv1SQT3VpTeHQqMCU--306" vertex="1">
          <mxGeometry x="30" width="313" height="31" as="geometry">
            <mxRectangle width="313" height="31" as="alternateBounds" />
          </mxGeometry>
        </mxCell>
        <mxCell id="0gxv1SQT3VpTeHQqMCU--309" style="shape=partialRectangle;connectable=0;top=0;left=0;bottom=0;right=0;align=left;spacingLeft=6;overflow=hidden;sketch=0;fillColor=#f5f5f5;fontColor=#333333;strokeColor=#666666;" parent="0gxv1SQT3VpTeHQqMCU--306" vertex="1">
          <mxGeometry x="343" width="78" height="31" as="geometry">
            <mxRectangle width="78" height="31" as="alternateBounds" />
          </mxGeometry>
        </mxCell>
        <mxCell id="0gxv1SQT3VpTeHQqMCU--310" value="" style="shape=tableRow;horizontal=0;startSize=0;swimlaneHead=0;swimlaneBody=0;fillColor=none;collapsible=0;dropTarget=0;points=[[0,0.5],[1,0.5]];portConstraint=eastwest;top=0;left=0;right=0;bottom=0;sketch=0;" parent="0gxv1SQT3VpTeHQqMCU--301" vertex="1">
          <mxGeometry y="93" width="421" height="30" as="geometry" />
        </mxCell>
        <mxCell id="0gxv1SQT3VpTeHQqMCU--311" value="" style="shape=partialRectangle;connectable=0;fillColor=none;top=0;left=0;bottom=0;right=0;editable=1;overflow=hidden;sketch=0;" parent="0gxv1SQT3VpTeHQqMCU--310" vertex="1">
          <mxGeometry width="30" height="30" as="geometry">
            <mxRectangle width="30" height="30" as="alternateBounds" />
          </mxGeometry>
        </mxCell>
        <mxCell id="0gxv1SQT3VpTeHQqMCU--312" value="item_id bigint not null" style="shape=partialRectangle;connectable=0;fillColor=none;top=0;left=0;bottom=0;right=0;align=left;spacingLeft=6;overflow=hidden;sketch=0;" parent="0gxv1SQT3VpTeHQqMCU--310" vertex="1">
          <mxGeometry x="30" width="313" height="30" as="geometry">
            <mxRectangle width="313" height="30" as="alternateBounds" />
          </mxGeometry>
        </mxCell>
        <mxCell id="0gxv1SQT3VpTeHQqMCU--313" style="shape=partialRectangle;connectable=0;fillColor=none;top=0;left=0;bottom=0;right=0;align=left;spacingLeft=6;overflow=hidden;sketch=0;" parent="0gxv1SQT3VpTeHQqMCU--310" vertex="1">
          <mxGeometry x="343" width="78" height="30" as="geometry">
            <mxRectangle width="78" height="30" as="alternateBounds" />
          </mxGeometry>
        </mxCell>
        <mxCell id="0gxv1SQT3VpTeHQqMCU--314" style="shape=tableRow;horizontal=0;startSize=0;swimlaneHead=0;swimlaneBody=0;fillColor=none;collapsible=0;dropTarget=0;points=[[0,0.5],[1,0.5]];portConstraint=eastwest;top=0;left=0;right=0;bottom=0;sketch=0;" parent="0gxv1SQT3VpTeHQqMCU--301" vertex="1">
          <mxGeometry y="123" width="421" height="30" as="geometry" />
        </mxCell>
        <mxCell id="0gxv1SQT3VpTeHQqMCU--315" style="shape=partialRectangle;connectable=0;fillColor=none;top=0;left=0;bottom=0;right=0;editable=1;overflow=hidden;sketch=0;" parent="0gxv1SQT3VpTeHQqMCU--314" vertex="1">
          <mxGeometry width="30" height="30" as="geometry">
            <mxRectangle width="30" height="30" as="alternateBounds" />
          </mxGeometry>
        </mxCell>
        <mxCell id="0gxv1SQT3VpTeHQqMCU--316" value="amount int not null" style="shape=partialRectangle;connectable=0;fillColor=none;top=0;left=0;bottom=0;right=0;align=left;spacingLeft=6;overflow=hidden;sketch=0;" parent="0gxv1SQT3VpTeHQqMCU--314" vertex="1">
          <mxGeometry x="30" width="313" height="30" as="geometry">
            <mxRectangle width="313" height="30" as="alternateBounds" />
          </mxGeometry>
        </mxCell>
        <mxCell id="0gxv1SQT3VpTeHQqMCU--317" style="shape=partialRectangle;connectable=0;fillColor=none;top=0;left=0;bottom=0;right=0;align=left;spacingLeft=6;overflow=hidden;sketch=0;" parent="0gxv1SQT3VpTeHQqMCU--314" vertex="1">
          <mxGeometry x="343" width="78" height="30" as="geometry">
            <mxRectangle width="78" height="30" as="alternateBounds" />
          </mxGeometry>
        </mxCell>
        <mxCell id="0gxv1SQT3VpTeHQqMCU--318" style="shape=tableRow;horizontal=0;startSize=0;swimlaneHead=0;swimlaneBody=0;fillColor=none;collapsible=0;dropTarget=0;points=[[0,0.5],[1,0.5]];portConstraint=eastwest;top=0;left=0;right=0;bottom=0;sketch=0;" parent="0gxv1SQT3VpTeHQqMCU--301" vertex="1">
          <mxGeometry y="153" width="421" height="30" as="geometry" />
        </mxCell>
        <mxCell id="0gxv1SQT3VpTeHQqMCU--319" style="shape=partialRectangle;connectable=0;fillColor=none;top=0;left=0;bottom=0;right=0;editable=1;overflow=hidden;sketch=0;" parent="0gxv1SQT3VpTeHQqMCU--318" vertex="1">
          <mxGeometry width="30" height="30" as="geometry">
            <mxRectangle width="30" height="30" as="alternateBounds" />
          </mxGeometry>
        </mxCell>
        <mxCell id="0gxv1SQT3VpTeHQqMCU--320" value="created_at datetime default CURRENT_TIMESTAMP" style="shape=partialRectangle;connectable=0;fillColor=none;top=0;left=0;bottom=0;right=0;align=left;spacingLeft=6;overflow=hidden;sketch=0;" parent="0gxv1SQT3VpTeHQqMCU--318" vertex="1">
          <mxGeometry x="30" width="313" height="30" as="geometry">
            <mxRectangle width="313" height="30" as="alternateBounds" />
          </mxGeometry>
        </mxCell>
        <mxCell id="0gxv1SQT3VpTeHQqMCU--321" style="shape=partialRectangle;connectable=0;fillColor=none;top=0;left=0;bottom=0;right=0;align=left;spacingLeft=6;overflow=hidden;sketch=0;" parent="0gxv1SQT3VpTeHQqMCU--318" vertex="1">
          <mxGeometry x="343" width="78" height="30" as="geometry">
            <mxRectangle width="78" height="30" as="alternateBounds" />
          </mxGeometry>
        </mxCell>
        <mxCell id="0gxv1SQT3VpTeHQqMCU--322" style="shape=tableRow;horizontal=0;startSize=0;swimlaneHead=0;swimlaneBody=0;fillColor=none;collapsible=0;dropTarget=0;points=[[0,0.5],[1,0.5]];portConstraint=eastwest;top=0;left=0;right=0;bottom=0;sketch=0;" parent="0gxv1SQT3VpTeHQqMCU--301" vertex="1">
          <mxGeometry y="183" width="421" height="32" as="geometry" />
        </mxCell>
        <mxCell id="0gxv1SQT3VpTeHQqMCU--323" style="shape=partialRectangle;connectable=0;fillColor=none;top=0;left=0;bottom=0;right=0;editable=1;overflow=hidden;sketch=0;" parent="0gxv1SQT3VpTeHQqMCU--322" vertex="1">
          <mxGeometry width="30" height="32" as="geometry">
            <mxRectangle width="30" height="32" as="alternateBounds" />
          </mxGeometry>
        </mxCell>
        <mxCell id="0gxv1SQT3VpTeHQqMCU--324" value="deleted_at datetime" style="shape=partialRectangle;connectable=0;fillColor=none;top=0;left=0;bottom=0;right=0;align=left;spacingLeft=6;overflow=hidden;sketch=0;" parent="0gxv1SQT3VpTeHQqMCU--322" vertex="1">
          <mxGeometry x="30" width="313" height="32" as="geometry">
            <mxRectangle width="313" height="32" as="alternateBounds" />
          </mxGeometry>
        </mxCell>
        <mxCell id="0gxv1SQT3VpTeHQqMCU--325" style="shape=partialRectangle;connectable=0;fillColor=none;top=0;left=0;bottom=0;right=0;align=left;spacingLeft=6;overflow=hidden;sketch=0;" parent="0gxv1SQT3VpTeHQqMCU--322" vertex="1">
          <mxGeometry x="343" width="78" height="32" as="geometry">
            <mxRectangle width="78" height="32" as="alternateBounds" />
          </mxGeometry>
        </mxCell>
        <mxCell id="0gxv1SQT3VpTeHQqMCU--330" style="edgeStyle=orthogonalEdgeStyle;rounded=0;sketch=0;orthogonalLoop=1;jettySize=auto;html=1;exitX=0;exitY=0.5;exitDx=0;exitDy=0;entryX=0;entryY=0.5;entryDx=0;entryDy=0;fontFamily=Helvetica;fontSize=14;fontColor=default;startSize=30;" parent="1" source="0gxv1SQT3VpTeHQqMCU--306" target="0gxv1SQT3VpTeHQqMCU--227" edge="1">
          <mxGeometry relative="1" as="geometry">
            <Array as="points">
              <mxPoint x="271" y="536" />
              <mxPoint x="271" y="167" />
            </Array>
          </mxGeometry>
        </mxCell>
        <mxCell id="0gxv1SQT3VpTeHQqMCU--399" value="주문" style="rounded=0;whiteSpace=wrap;html=1;shadow=0;dashed=1;sketch=0;fontFamily=Helvetica;fontSize=14;fontColor=default;startSize=30;strokeColor=#CCCCCC;fillColor=#FF9933;gradientColor=none;" parent="1" vertex="1">
          <mxGeometry x="-284" y="62" width="120" height="60" as="geometry" />
        </mxCell>
      </root>
    </mxGraphModel>
  </diagram>
</mxfile>
